<?xml version="1.0" encoding="UTF-8"?> <!-- Generator: Adobe Illustrator 18.0.0, SVG Export Plug-In . SVG Version: 6.00 Build 0) --> <svg xmlns="http://www.w3.org/2000/svg" xmlns:xlink="http://www.w3.org/1999/xlink" version="1.1" id="Capa_1" x="0px" y="0px" viewBox="0 0 360.45 289.27" style="enable-background:new 0 0 360.45 289.27;" xml:space="preserve"> <style type="text/css"> .st0{opacity:0.4;} .st1{fill:#E8505B;} .st2{opacity:0.7;fill:#E8505B;} .st3{fill:#EBEBEB;stroke:#263238;stroke-width:0.7715;stroke-linecap:round;stroke-linejoin:round;stroke-miterlimit:10;} .st4{fill:#E8505B;stroke:#263238;stroke-width:0.7715;stroke-linecap:round;stroke-linejoin:round;stroke-miterlimit:10;} .st5{fill:#263238;stroke:#263238;stroke-width:0.7715;stroke-linecap:round;stroke-linejoin:round;stroke-miterlimit:10;} .st6{fill:none;stroke:#263238;stroke-width:0.7715;stroke-linecap:round;stroke-linejoin:round;stroke-miterlimit:10;} .st7{fill:#FFFFFF;stroke:#263238;stroke-width:0.7715;stroke-linecap:round;stroke-linejoin:round;stroke-miterlimit:10;} .st8{fill:#263238;} .st9{fill:#FFFFFF;stroke:#263238;stroke-width:0.7715;stroke-miterlimit:10;} .st10{clip-path:url(#XMLID_3_);fill:#FFFFFF;stroke:#263238;stroke-width:0.7715;stroke-linecap:round;stroke-linejoin:round;stroke-miterlimit:10;} .st11{opacity:0.5;clip-path:url(#XMLID_3_);fill:#FFFFFF;stroke:#263238;stroke-width:0.7715;stroke-linecap:round;stroke-linejoin:round;stroke-miterlimit:10;} </style> <g> <g class="st0"> <path class="st1" d="M63.08,248.58c0,0,33.23,37.46,86.26,36.02c53.03-1.43,98.49-37.15,136.07-65.11 c37.59-27.96,47.94-71.72,26.41-106.09c-21.53-34.37-56.23-20.2-100.16-42.72c-43.93-22.52-52.22-35.19-101.37-30.12 c-49.15,5.06-86.92,60.04-81.75,118.92C33.71,218.35,63.08,248.58,63.08,248.58z"></path> <path class="st2" d="M63.08,248.58c0,0,33.23,37.46,86.26,36.02c53.03-1.43,98.49-37.15,136.07-65.11 c37.59-27.96,47.94-71.72,26.41-106.09c-21.53-34.37-56.23-20.2-100.16-42.72c-43.93-22.52-52.22-35.19-101.37-30.12 c-49.15,5.06-86.92,60.04-81.75,118.92C33.71,218.35,63.08,248.58,63.08,248.58z"></path> </g> <g> <path id="XMLID_57_" class="st3" d="M175.23,192.61V89.19c0-3.03,2.46-5.49,5.49-5.49h43.06c3.03,0,5.49,2.46,5.49,5.49v103.42 c0,3.03-2.46,5.49-5.49,5.49h-43.06C177.68,198.09,175.23,195.64,175.23,192.61z"></path> <path id="XMLID_56_" class="st4" d="M225.03,83.7h-45.57c-2.34,0-4.23,1.89-4.23,4.23v2.58h54.03v-2.58 C229.26,85.59,227.37,83.7,225.03,83.7z"></path> <rect id="XMLID_55_" x="178.39" y="96.11" class="st5" width="34.56" height="56.47"></rect> <path id="XMLID_54_" class="st4" d="M175.23,192.01v1.85c0,2.34,1.89,4.23,4.23,4.23h45.57c2.34,0,4.23-1.89,4.23-4.23v-1.85 H175.23z"></path> <rect id="XMLID_53_" x="199.08" y="180.32" class="st6" width="10.71" height="11.68"></rect> <circle id="XMLID_52_" class="st6" cx="204.19" cy="180.32" r="3.16"></circle> <line id="XMLID_51_" class="st7" x1="203.22" y1="177.16" x2="203.22" y2="152.58"></line> <rect id="XMLID_50_" x="178.39" y="159.88" class="st6" width="9.98" height="12.66"></rect> <rect id="XMLID_49_" x="204.44" y="192.01" class="st5" width="9.74" height="6.08"></rect> <polygon id="XMLID_48_" class="st1" points="202.13,108.64 196.95,108.64 190.9,122.65 195.27,122.65 190.12,136.41 201.95,119.05 197.32,119.05 "></polygon> <path id="XMLID_47_" class="st4" d="M104.01,205h7.94v54.03h-7.94c-2.34,0-4.23-1.89-4.23-4.23v-45.57 C99.78,206.9,101.67,205,104.01,205z"></path> <path id="XMLID_46_" class="st4" d="M258.6,205h-7.94v23.25c0.76-0.54,1.68-0.86,2.68-0.86c2.55,0,4.62,2.07,4.62,4.62 c0,2.55-2.07,4.62-4.62,4.62c-1,0-1.92-0.32-2.68-0.86v23.25h7.94c2.34,0,4.23-1.89,4.23-4.23v-45.57 C262.83,206.9,260.94,205,258.6,205z"></path> <path id="XMLID_45_" class="st8" d="M232.29,259.03H128.87c-3.03,0-5.49-2.46-5.49-5.49v-43.06c0-3.03,2.46-5.49,5.49-5.49h103.42 c3.03,0,5.49,2.46,5.49,5.49v43.06C237.78,256.58,235.32,259.03,232.29,259.03z"></path> <path id="XMLID_44_" class="st1" d="M230.98,257.83H130.19c-3.03,0-5.49-2.46-5.49-5.49V211.7c0-3.03,2.46-5.49,5.49-5.49h100.78 c3.03,0,5.49,2.46,5.49,5.49v40.64C236.46,255.37,234.01,257.83,230.98,257.83z"></path> <path id="XMLID_43_" class="st3" d="M209.06,256.36h-74.89c-3.26,0-5.91-2.65-5.91-5.91v-36.37c0-3.26,2.65-5.91,5.91-5.91h74.89 V256.36z"></path> <circle id="XMLID_42_" class="st5" cx="230.72" cy="231.78" r="3.16"></circle> <rect id="XMLID_41_" x="211.49" y="247.11" class="st6" width="2.19" height="9.25"></rect> <rect id="XMLID_40_" x="211.49" y="232.99" class="st6" width="2.19" height="9.25"></rect> <path id="XMLID_36_" class="st8" d="M151.78,159.11h-21.64v-1.18c0-0.64-0.52-1.16-1.16-1.16c-0.64,0-1.16,0.52-1.16,1.16v18.5 c0,0.64,0.52,1.16,1.16,1.16c0.64,0,1.16-0.52,1.16-1.16v-1.66h21.64c1.55,0,2.8-1.26,2.8-2.8v-10.05 C154.58,160.37,153.32,159.11,151.78,159.11z M130.14,160.65h14.62v12.57h-14.62V160.65z M153.04,171.96 c0,0.69-0.57,1.26-1.26,1.26h-5.47v-12.57h5.47c0.7,0,1.26,0.57,1.26,1.26V171.96z"></path> <polygon id="XMLID_35_" class="st4" points="139.01,133.84 129.96,133.84 129.96,153.07 145.78,153.07 145.78,140.04 "></polygon> <g id="XMLID_29_"> <path id="XMLID_34_" class="st7" d="M139.48,150.26h-4.58c-1.39,0-2.51-1.13-2.51-2.51v-5.73c0-1.39,1.13-2.51,2.51-2.51h4.58 c1.39,0,2.51,1.13,2.51,2.51v5.73C142,149.14,140.87,150.26,139.48,150.26z"></path> <line id="XMLID_33_" class="st6" x1="137.1" y1="139.7" x2="137.1" y2="150.27"></line> <line id="XMLID_32_" class="st6" x1="132.39" y1="145.08" x2="141.9" y2="145.08"></line> <path id="XMLID_31_" class="st6" d="M134.69,150.17v-2.4c0-1.33,1.08-2.41,2.41-2.41h0.08c1.33,0,2.41,1.08,2.41,2.41v2.48"></path> <path id="XMLID_30_" class="st6" d="M139.59,140.06v2.4c0,1.33-1.08,2.41-2.41,2.41h-0.08c-1.33,0-2.41-1.08-2.41-2.41v-2.48"></path> </g> <path class="st9" d="M280.43,256.58L280.43,256.58c-0.32,0-0.58-0.26-0.59-0.58l-0.57-32.59h2.31L281.02,256 C281.01,256.32,280.75,256.58,280.43,256.58z"></path> <polygon class="st5" points="288,132.97 272.89,132.97 276.09,172.22 276.1,172.22 276.1,212.67 284.78,212.67 284.78,172.22 284.79,172.22 "></polygon> <rect x="272.79" y="121.63" class="st4" width="15.3" height="11.31"></rect> <polygon class="st4" points="282.52,226.11 278.37,226.11 276.21,212.73 284.67,212.73 "></polygon> <path id="XMLID_28_" class="st8" d="M82.74,133.62c-2.31-2.31-0.58,25.27-1.93,37.99c-1.35,12.73-5.01,31.05-8.49,43.01 c-3.47,11.96-1.74,15.62-1.74,15.62s-0.23,0.18-0.53,0.43c-0.31-0.26-0.53-0.43-0.53-0.43s1.74-3.66-1.74-15.62 c-3.47-11.96-7.14-30.28-8.49-43.01c-1.35-12.73,0.39-40.31-1.93-37.99c0,0-1.74,39.34,1.16,55.93 c2.89,16.59,6.75,34.33,8.1,43.97c1.08,7.7,1.05,17.49,0.99,21.13c-0.01,0.79,0.63,1.44,1.42,1.44l0,0h2.02l0,0 c0.79,0,1.44-0.65,1.42-1.44c-0.06-3.63-0.08-13.42,0.99-21.13c1.35-9.64,5.21-27.39,8.1-43.97 C84.47,172.97,82.74,133.62,82.74,133.62z"></path> <rect id="XMLID_27_" x="142.29" y="110.18" class="st7" width="35.96" height="4.11"></rect> <path id="XMLID_26_" class="st6" d="M121.2,67.88c0,0,3.89,16.31,6.08,21.9c2.19,5.6,4.38,11.44,6.81,13.63 c2.43,2.19,9.74,6.08,10.71,7.3"></path> <path id="XMLID_25_" class="st6" d="M104.4,86.13c0,0,15.58,22.39,17.77,25.8c2.19,3.41,8.76,3.41,10.47,4.87 c1.7,1.46,5.35,4.62,5.35,4.62"></path> <path id="XMLID_24_" class="st6" d="M89.56,92.46c0,0,6.57,8.03,11.93,16.06c5.35,8.03,5.84,9.98,8.52,10.71 c2.68,0.73,9.01,1.22,9.01,1.22"></path> <path id="XMLID_23_" class="st6" d="M84.45,104.87c0,0,11.2,15.09,12.17,17.28c0.97,2.19,2.43,2.92,2.43,2.92"></path> <path id="XMLID_22_" class="st6" d="M104.16,70.56c0,0-5.11,2.68-4.38,4.87c0.73,2.19,1.95,4.38,1.95,4.38"></path> <path id="XMLID_21_" class="st6" d="M90.53,78.83c0,0-4.62,1.46-4.87,4.14c-0.24,2.68,0.97,4.87,0.97,4.87"></path> <g> <g> <defs> <path id="XMLID_18_" d="M263.82,112.42c0,0-3.65,3.16-5.11,6.81c-1.46,3.65-1.22,7.3-4.87,8.52c-3.65,1.22-5.84,0-5.84,0 s2.92-7.3,4.62-9.74C254.33,115.58,263.82,112.42,263.82,112.42z"></path> </defs> <use xlink:href="#XMLID_18_" style="overflow:visible;fill:#FFFFFF;"></use> <clipPath id="XMLID_3_"> <use xlink:href="#XMLID_18_" style="overflow:visible;"></use> </clipPath> <path id="XMLID_20_" class="st10" d="M263.82,112.42c0,0-3.65,3.16-5.11,6.81c-1.46,3.65-1.22,7.3-4.87,8.52 c-3.65,1.22-5.84,0-5.84,0s2.92-7.3,4.62-9.74C254.33,115.58,263.82,112.42,263.82,112.42z"></path> <path id="XMLID_19_" class="st11" d="M263.82,112.42c0,0-3.65,3.16-5.11,6.81c-1.46,3.65-1.22,7.3-4.87,8.52 c-3.65,1.22-5.84,0-5.84,0s2.92-7.3,4.62-9.74C254.33,115.58,263.82,112.42,263.82,112.42z"></path> <use xlink:href="#XMLID_18_" style="overflow:visible;fill:none;stroke:#263238;stroke-width:0.7715;stroke-linecap:round;stroke-linejoin:round;stroke-miterlimit:10;"></use> </g> <path id="XMLID_17_" class="st7" d="M254.97,5c0,0-9.15,23.69-12.81,30.26c-3.65,6.57-8.28,8.52-13.63,10.71 c-5.35,2.19-20.44,11.68-21.9,15.33c-1.46,3.65-3.16,14.6-4.62,18.25c-1.46,3.65-4.38,5.6-8.76,6.81 c-4.38,1.22-9.01,1.95-8.28,4.14c0.73,2.19,7.79,3.65,14.85,2.68c7.06-0.97,9.74-2.92,11.93-5.84c2.19-2.92,5.84-9.25,7.3-9.98 c1.46-0.73,1.46-0.73,1.46-0.73s-0.24,26.04,0.24,29.21c0.49,3.16-2.19,14.12-7.54,27.26c-5.35,13.14-1.46,21.9,0.24,23.61 s5.11,1.7,5.84,0.97c0.73-0.73,0.24-10.47,1.7-16.79c1.46-6.33,9.98-23.12,12.41-26.53c2.43-3.41,5.11-8.52,5.11-8.52 s-1.22,10.47-6.08,23.12c-4.87,12.66-9.98,20.93-10.95,24.58c-0.97,3.65,2.68,5.84,4.87,4.87c2.19-0.97,6.81-10.71,8.52-14.12 c1.7-3.41,6.57-11.68,6.57-11.68s4.14,0.73,7.06-2.92c2.92-3.65,7.54-11.2,7.54-11.2s6.81-3.65,7.79-6.08 c0.97-2.43,2.68-26.04,4.14-34.32c1.46-8.28,5.6-26.04,7.79-33.1c2.19-7.06,18.16-37.56,18.16-37.56"></path> <path class="st6" d="M240.01,102.03c0,0,2.06-1.03,2.57-4.63c0.51-3.6,0.51-6.69,0.51-6.69"></path> <path id="XMLID_16_" class="st6" d="M241.43,132.62c0,0,7.54-13.63,8.76-14.36c1.22-0.73,5.11-2.92,5.35-6.33 c0.24-3.41,0.49-7.54,0.49-7.54"></path> </g> <g id="XMLID_2_"> <path id="XMLID_15_" class="st7" d="M110.7,6.86c0,0,8.3,29.62,10.01,33.27c1.7,3.65,10.95,9.49,12.66,17.52 c1.7,8.03,3.89,11.44,5.84,17.52c1.95,6.08,3.65,6.08,0.73,11.2c-2.92,5.11-3.41,8.28-1.46,11.44c1.95,3.16,11.93,7.3,10.71,9.74 c-1.22,2.43-2.43,3.16-3.41,3.16c-0.97,0-0.97,0-0.97,0s2.19,8.03,0.97,10.95c-1.22,2.92-4.14,4.87-5.11,3.41 c-0.97-1.46-2.68-3.65-2.68-3.65s1.95,3.89-0.49,4.38c-2.43,0.49-2.92-0.24-6.57-1.95c-3.65-1.7-11.93-3.41-11.93-3.41 s-9.74,3.89-12.9,4.87c-3.16,0.97-7.06-0.24-7.06-0.24s-10.47,4.14-12.17,0.73c-1.7-3.41-2.92-17.52-3.65-20.2 c-0.73-2.68-3.16-4.87-2.68-9.01c0.49-4.14,1.7-6.57,1.95-8.28c0.24-1.7,6.57-32.61,6.57-39.43S77.14,8.01,77.14,8.01"></path> <path id="XMLID_14_" class="st6" d="M121.2,67.88c0,0,3.89,16.31,6.08,21.9c2.19,5.6,4.38,11.44,6.81,13.63 c2.43,2.19,9.74,6.08,10.71,7.3"></path> <path id="XMLID_13_" class="st6" d="M104.4,86.13c0,0,15.58,22.39,17.77,25.8c2.19,3.41,8.76,3.41,10.47,4.87 c1.7,1.46,5.35,4.62,5.35,4.62"></path> <path id="XMLID_12_" class="st6" d="M89.56,92.46c0,0,6.57,8.03,11.93,16.06c5.35,8.03,5.84,9.98,8.52,10.71 c2.68,0.73,9.01,1.22,9.01,1.22"></path> <path id="XMLID_11_" class="st6" d="M84.45,104.87c0,0,11.2,15.09,12.17,17.28c0.97,2.19,2.43,2.92,2.43,2.92"></path> <path id="XMLID_10_" class="st6" d="M104.16,70.56c0,0-5.11,2.68-4.38,4.87c0.73,2.19,1.95,4.38,1.95,4.38"></path> <path id="XMLID_4_" class="st6" d="M90.53,78.83c0,0-4.62,1.46-4.87,4.14c-0.24,2.68,0.97,4.87,0.97,4.87"></path> </g> </g> </g> </svg> 