<?xml version="1.0" encoding="UTF-8"?> <!-- Generator: Adobe Illustrator 18.0.0, SVG Export Plug-In . SVG Version: 6.00 Build 0) --> <svg xmlns="http://www.w3.org/2000/svg" xmlns:xlink="http://www.w3.org/1999/xlink" version="1.1" id="Capa_1" x="0px" y="0px" viewBox="0 0 360.45 289.27" style="enable-background:new 0 0 360.45 289.27;" xml:space="preserve"> <style type="text/css"> .st0{fill:#E8505B;} .st1{fill:#263238;} .st2{fill:#F5F5F5;} .st3{fill:#FFFFFF;} .st4{fill:#EBEBEB;} .st5{opacity:0.6;} .st6{fill:#FAFAFA;} .st7{opacity:0.4;} .st8{fill:#FFBE9D;} .st9{opacity:0.2;} .st10{fill:#E0E0E0;} .st11{fill:#455A64;} .st12{opacity:0.3;} .st13{fill:#EB996E;} .st14{fill:none;stroke:#263238;stroke-width:0.0246;stroke-miterlimit:10;} </style> <g> <g> <g> <g> <g> <rect x="35.96" y="140.46" class="st0" width="51.24" height="39.52"></rect> </g> </g> <g> <g> <g> <ellipse class="st0" cx="48.79" cy="160.03" rx="0.13" ry="19.67"></ellipse> </g> </g> </g> <g> <g> <rect x="40.3" y="170.98" class="st0" width="3.93" height="4.44"></rect> </g> </g> <g> <g> <rect x="65.74" y="140.56" class="st0" width="5.82" height="8.43"></rect> </g> </g> <g> <g> <rect x="65.74" y="171.43" class="st0" width="5.82" height="8.43"></rect> </g> </g> </g> </g> <g> <g> <g> <g> <rect x="22.14" y="180.54" class="st0" width="84.58" height="65.24"></rect> </g> </g> <g> <g> <g> <path class="st0" d="M85.53,245.31c-0.09,0-0.17-14.54-0.17-32.48c0-17.94,0.08-32.48,0.17-32.48 c0.09,0,0.17,14.54,0.17,32.48C85.69,230.77,85.62,245.31,85.53,245.31z"></path> </g> </g> </g> <g> <g> <rect x="93.06" y="230.92" class="st0" width="6.48" height="7.33"></rect> </g> </g> <g> <g> <rect x="47.94" y="180.7" class="st0" width="9.61" height="13.92"></rect> </g> </g> <g> <g> <rect x="47.94" y="231.66" class="st0" width="9.61" height="13.92"></rect> </g> </g> </g> </g> <g> <g> <g> <g> <ellipse class="st0" cx="171.57" cy="65.62" rx="1.23" ry="0.13"></ellipse> </g> </g> </g> <g> <g> <g> <ellipse class="st0" cx="176.49" cy="65.62" rx="1.23" ry="0.13"></ellipse> </g> </g> </g> <g> <g> <g> <ellipse class="st0" cx="181.41" cy="65.62" rx="1.23" ry="0.13"></ellipse> </g> </g> </g> <g> <g> <g> <ellipse class="st0" cx="186.33" cy="65.62" rx="1.23" ry="0.13"></ellipse> </g> </g> </g> <g> <g> <g> <ellipse class="st0" cx="191.25" cy="65.62" rx="1.23" ry="0.13"></ellipse> </g> </g> </g> <g> <g> <g> <ellipse class="st0" cx="196.17" cy="65.62" rx="1.23" ry="0.13"></ellipse> </g> </g> </g> <g> <g> <g> <ellipse class="st0" cx="201.09" cy="65.62" rx="1.23" ry="0.13"></ellipse> </g> </g> </g> <g> <g> <g> <ellipse class="st0" cx="206.01" cy="65.62" rx="1.23" ry="0.13"></ellipse> </g> </g> </g> <g> <g> <g> <ellipse class="st0" cx="210.93" cy="65.62" rx="1.23" ry="0.13"></ellipse> </g> </g> </g> <g> <g> <g> <ellipse class="st0" cx="215.85" cy="65.62" rx="1.23" ry="0.13"></ellipse> </g> </g> </g> <g> <g> <g> <ellipse class="st0" cx="220.77" cy="65.62" rx="1.23" ry="0.13"></ellipse> </g> </g> </g> <g> <g> <g> <ellipse class="st0" cx="225.69" cy="65.62" rx="1.23" ry="0.13"></ellipse> </g> </g> </g> <g> <g> <g> <ellipse class="st0" cx="230.61" cy="65.62" rx="1.23" ry="0.13"></ellipse> </g> </g> </g> <g> <g> <g> <ellipse class="st0" cx="235.53" cy="65.62" rx="1.23" ry="0.13"></ellipse> </g> </g> </g> <g> <g> <g> <ellipse class="st0" cx="240.44" cy="65.62" rx="1.23" ry="0.13"></ellipse> </g> </g> </g> <g> <g> <g> <ellipse class="st0" cx="245.36" cy="65.62" rx="1.23" ry="0.13"></ellipse> </g> </g> </g> <g> <g> <g> <ellipse class="st0" cx="250.28" cy="65.62" rx="1.23" ry="0.13"></ellipse> </g> </g> </g> <g> <g> <g> <ellipse class="st0" cx="255.2" cy="65.62" rx="1.23" ry="0.13"></ellipse> </g> </g> </g> <g> <g> <g> <ellipse class="st0" cx="260.12" cy="65.62" rx="1.23" ry="0.13"></ellipse> </g> </g> </g> <g> <g> <g> <ellipse class="st0" cx="265.04" cy="65.62" rx="1.23" ry="0.13"></ellipse> </g> </g> </g> <g> <g> <g> <ellipse class="st0" cx="269.96" cy="65.62" rx="1.23" ry="0.13"></ellipse> </g> </g> </g> <g> <g> <g> <ellipse class="st0" cx="274.88" cy="65.62" rx="1.23" ry="0.13"></ellipse> </g> </g> </g> <g> <g> <g> <ellipse class="st0" cx="279.8" cy="65.62" rx="1.23" ry="0.13"></ellipse> </g> </g> </g> <g> <g> <g> <ellipse class="st0" cx="282.29" cy="68.04" rx="0.13" ry="1.23"></ellipse> </g> </g> </g> <g> <g> <g> <ellipse class="st0" cx="282.29" cy="72.96" rx="0.13" ry="1.23"></ellipse> </g> </g> </g> <g> <g> <g> <ellipse class="st0" cx="282.29" cy="77.88" rx="0.13" ry="1.23"></ellipse> </g> </g> </g> <g> <g> <g> <ellipse class="st0" cx="282.29" cy="82.8" rx="0.13" ry="1.23"></ellipse> </g> </g> </g> <g> <g> <g> <ellipse class="st0" cx="282.29" cy="87.72" rx="0.13" ry="1.23"></ellipse> </g> </g> </g> <g> <g> <g> <path class="st0" d="M283.25,92.91c0,0.06-0.41,0.11-0.96,0.13l-0.12,0l0-0.13c0-0.09,0-0.18,0-0.27 c0-0.68,0.06-1.23,0.13-1.23c0.07,0,0.13,0.55,0.13,1.23c0,0.09,0,0.18,0,0.27l-0.12-0.12 C282.84,92.8,283.25,92.85,283.25,92.91z"></path> </g> </g> </g> <g> <g> <g> <ellipse class="st0" cx="286.94" cy="92.91" rx="1.23" ry="0.13"></ellipse> </g> </g> </g> <g> <g> <g> <ellipse class="st0" cx="291.86" cy="92.91" rx="1.23" ry="0.13"></ellipse> </g> </g> </g> <g> <g> <g> <ellipse class="st0" cx="296.78" cy="92.91" rx="1.23" ry="0.13"></ellipse> </g> </g> </g> <g> <g> <g> <ellipse class="st0" cx="301.7" cy="92.91" rx="1.23" ry="0.13"></ellipse> </g> </g> </g> <g> <g> <g> <ellipse class="st0" cx="306.62" cy="92.91" rx="1.23" ry="0.13"></ellipse> </g> </g> </g> <g> <g> <g> <ellipse class="st0" cx="311.54" cy="92.91" rx="1.23" ry="0.13"></ellipse> </g> </g> </g> <g> <g> <g> <ellipse class="st0" cx="316.46" cy="92.91" rx="1.23" ry="0.13"></ellipse> </g> </g> </g> <g> <g> <g> <ellipse class="st0" cx="321.38" cy="92.91" rx="1.23" ry="0.13"></ellipse> </g> </g> </g> <g> <g> <g> <ellipse class="st0" cx="324.52" cy="94.69" rx="0.13" ry="1.23"></ellipse> </g> </g> </g> <g> <g> <g> <ellipse class="st0" cx="324.52" cy="99.61" rx="0.13" ry="1.23"></ellipse> </g> </g> </g> <g> <g> <g> <ellipse class="st0" cx="324.52" cy="104.53" rx="0.13" ry="1.23"></ellipse> </g> </g> </g> <g> <g> <g> <ellipse class="st0" cx="324.52" cy="109.45" rx="0.13" ry="1.23"></ellipse> </g> </g> </g> <g> <g> <g> <ellipse class="st0" cx="324.52" cy="114.37" rx="0.13" ry="1.23"></ellipse> </g> </g> </g> <g> <g> <g> <ellipse class="st0" cx="324.52" cy="119.29" rx="0.13" ry="1.23"></ellipse> </g> </g> </g> <g> <g> <g> <ellipse class="st0" cx="324.52" cy="124.21" rx="0.13" ry="1.23"></ellipse> </g> </g> </g> <g> <g> <g> <ellipse class="st0" cx="324.52" cy="129.13" rx="0.13" ry="1.23"></ellipse> </g> </g> </g> <g> <g> <g> <ellipse class="st0" cx="324.52" cy="134.04" rx="0.13" ry="1.23"></ellipse> </g> </g> </g> <g> <g> <g> <ellipse class="st0" cx="324.52" cy="138.96" rx="0.13" ry="1.23"></ellipse> </g> </g> </g> <g> <g> <g> <ellipse class="st0" cx="324.52" cy="143.88" rx="0.13" ry="1.23"></ellipse> </g> </g> </g> </g> <g> <g> <g> <g> <path class="st0" d="M198.62,74.01c0,0-3.82-2.11-7.56,6.92c-3.74,9.03-5.03,14.17-5.03,14.17s-1.03,1.91-2.37,0.82 c-1.34-1.09-3.32-4.33-5.4-3.56c-2.15,0.8-2.69,3.32-1.98,6.9c0.7,3.58,1.96,11.48,2.07,12.19c0.11,0.7-0.21,1.77-1.25,1.18 c-1.03-0.6-7.17-6.44-9.77-3.36c-2.6,3.08,1,12.73,1.38,13.79c0.37,1.06,0.2,1.54-0.3,1.85c-0.49,0.31-2.37-1.85-4.19-3.44 c-1.81-1.59-4.2-3.12-5.55-1.21c-1.35,1.9-1.24,9.35,6.75,20.82l4.05,5.08l6.47-0.87c13.72-2.71,18.97-7.99,19.32-10.3 c0.35-2.31-2.42-2.86-4.83-2.98c-2.41-0.12-5.26,0.13-5.4-0.43c-0.14-0.57,0.07-1.03,1.07-1.54c1.01-0.51,10.3-4.95,10.57-8.97 c0.27-4.02-8.2-4.08-9.36-4.37c-1.16-0.29-0.65-1.28-0.08-1.71c0.58-0.44,6.96-5.25,9.96-7.34c2.99-2.09,4.36-4.27,3.36-6.34 c-0.96-2-4.63-1.04-6.35-1.19c-1.72-0.15-1.14-2.24-1.14-2.24s2.65-4.59,6.22-13.69c3.58-9.1-0.75-10.23-0.75-10.23"></path> </g> </g> </g> <g> <g> <g> <g> <path class="st0" d="M169.71,144.81c2.65-6.67,6.4-15.86,10.56-25.99c4.17-10.13,7.93-19.3,10.62-25.96 c1.34-3.32,2.42-6.01,3.18-7.89c0.37-0.92,0.66-1.64,0.87-2.14c0.1-0.24,0.18-0.42,0.23-0.56c0.05-0.12,0.09-0.19,0.09-0.19 s-0.02,0.07-0.06,0.19c-0.05,0.14-0.12,0.32-0.21,0.56c-0.19,0.5-0.47,1.23-0.83,2.16c-0.72,1.87-1.78,4.58-3.11,7.91 c-2.65,6.67-6.39,15.86-10.56,25.98c-4.17,10.13-7.93,19.31-10.62,25.96"></path> </g> </g> </g> </g> <g> <g> <g> <g> <path class="st0" d="M180.85,97c0.01-0.01,0.09,0.15,0.2,0.42c0.12,0.28,0.27,0.69,0.46,1.19c0.38,1.01,0.86,2.42,1.36,3.99 c0.49,1.54,0.93,2.94,1.27,4.02c0.15,0.48,0.28,0.88,0.39,1.21c0.09,0.29,0.14,0.45,0.12,0.45c-0.01,0.01-0.09-0.15-0.2-0.42 c-0.12-0.28-0.27-0.69-0.46-1.19c-0.37-1.02-0.83-2.43-1.33-4c-0.5-1.54-0.95-2.93-1.3-4.01c-0.16-0.48-0.29-0.88-0.4-1.21 C180.88,97.17,180.83,97.01,180.85,97z"></path> </g> </g> </g> </g> <g> <g> <g> <g> <ellipse transform="matrix(-0.9365 0.3507 -0.3507 -0.9365 408.3812 137.9388)" class="st0" cx="191.7" cy="105.95" rx="6.87" ry="0.11"></ellipse> </g> </g> </g> </g> <g> <g> <g> <g> <path class="st0" d="M178.16,123.63c0-0.02,0.17-0.04,0.48-0.06c0.35-0.03,0.79-0.06,1.3-0.1c1.1-0.09,2.61-0.21,4.28-0.41 c1.67-0.19,3.17-0.42,4.26-0.59c0.51-0.08,0.94-0.15,1.29-0.2c0.3-0.05,0.47-0.06,0.48-0.05c0,0.02-0.16,0.06-0.46,0.13 c-0.3,0.07-0.74,0.17-1.28,0.27c-1.08,0.21-2.59,0.46-4.26,0.66c-1.67,0.2-3.19,0.3-4.29,0.34c-0.55,0.02-1,0.03-1.31,0.03 C178.33,123.65,178.16,123.65,178.16,123.63z"></path> </g> </g> </g> </g> <g> <g> <g> <g> <path class="st0" d="M171.91,114.24c0.01-0.01,0.11,0.11,0.29,0.34c0.17,0.23,0.41,0.56,0.71,0.97 c0.59,0.83,1.4,1.98,2.27,3.26c0.88,1.28,1.66,2.45,2.22,3.3c0.28,0.43,0.5,0.77,0.65,1.01c0.15,0.24,0.23,0.38,0.21,0.39 c-0.01,0.01-0.11-0.11-0.29-0.34c-0.17-0.23-0.41-0.56-0.71-0.97c-0.59-0.83-1.4-1.98-2.27-3.26 c-0.88-1.28-1.66-2.45-2.22-3.3c-0.28-0.43-0.5-0.77-0.65-1.01C171.97,114.38,171.89,114.24,171.91,114.24z"></path> </g> </g> </g> </g> <g> <g> <g> <g> <path class="st0" d="M163.92,126.92c0.01-0.01,0.14,0.15,0.36,0.44c0.24,0.33,0.55,0.75,0.91,1.25 c0.76,1.06,1.81,2.53,2.94,4.16c1.14,1.63,2.16,3.12,2.89,4.2c0.34,0.51,0.63,0.95,0.86,1.29c0.2,0.31,0.3,0.48,0.29,0.49 c-0.01,0.01-0.14-0.15-0.36-0.44c-0.24-0.33-0.55-0.75-0.91-1.25c-0.76-1.06-1.81-2.53-2.95-4.16 c-1.14-1.63-2.16-3.11-2.89-4.19c-0.34-0.51-0.63-0.95-0.86-1.29C164.01,127.1,163.91,126.93,163.92,126.92z"></path> </g> </g> </g> </g> <g> <g> <g> <g> <path class="st0" d="M172.06,138.39c0-0.02,0.21-0.05,0.6-0.09c0.43-0.05,0.98-0.11,1.64-0.19c1.39-0.16,3.3-0.38,5.41-0.69 c2.11-0.3,4.01-0.63,5.38-0.87c0.66-0.11,1.2-0.21,1.63-0.29c0.39-0.07,0.6-0.09,0.6-0.08c0,0.01-0.21,0.07-0.59,0.16 c-0.38,0.09-0.93,0.21-1.62,0.35c-1.37,0.28-3.27,0.63-5.38,0.93c-2.11,0.31-4.03,0.51-5.43,0.62 c-0.7,0.06-1.26,0.1-1.65,0.12C172.28,138.41,172.06,138.41,172.06,138.39z"></path> </g> </g> </g> </g> </g> <g> <g> <g> <path class="st0" d="M341.8,157.15c0-10.64-9.62-19.04-20.64-16.97c-6.93,1.3-12.45,6.96-13.67,13.91 c-0.76,4.34,0.14,8.43,2.12,11.8h-0.01l0.05,0.07c0.66,1.12,1.49,1.92,2.33,3.09l10.04,13.29c1.25,1.65,3.73,1.65,4.98,0 l9.87-13.07c0,0,1.84-2.2,2.51-3.33l0.04-0.05h-0.01C340.92,163.32,341.8,160.34,341.8,157.15z M324.52,164.68 c-4.2,0-7.61-3.41-7.61-7.61c0-4.2,3.41-7.61,7.61-7.61c4.2,0,7.61,3.41,7.61,7.61C332.13,161.27,328.72,164.68,324.52,164.68z"></path> </g> </g> </g> <g> <g> <g> <path class="st0" d="M260.19,80.3v20.33c0,0.44,0.35,0.79,0.79,0.79h42.62c0.44,0,0.8-0.36,0.79-0.8l-0.1-7.44 c0-0.17-0.06-0.33-0.16-0.46l-6.11-8.17c-0.15-0.2-0.38-0.32-0.63-0.32l-7.04-0.05c-0.44,0-0.79-0.36-0.79-0.79V80.3 c0-0.44-0.35-0.79-0.79-0.79h-27.8C260.55,79.5,260.19,79.86,260.19,80.3z"></path> </g> </g> <g> <g> <path class="st0" d="M291.55,85.94v6.52c0,0.25,0.21,0.46,0.46,0.45l9.41-0.17c0.36-0.01,0.57-0.41,0.37-0.71l-4.4-6.49 c-0.09-0.13-0.23-0.2-0.39-0.2L292,85.48C291.75,85.49,291.55,85.69,291.55,85.94z"></path> </g> </g> <g> <g> <rect x="259.33" y="102.04" class="st0" width="45.91" height="1.42"></rect> </g> </g> <g> <g> <circle class="st0" cx="269.98" cy="102.58" r="4.54"></circle> </g> </g> <g> <g> <circle class="st0" cx="269.98" cy="102.58" r="2.67"></circle> </g> </g> <g> <g> <g> <ellipse class="st0" cx="289.54" cy="90.46" rx="0.21" ry="10.96"></ellipse> </g> </g> </g> <g> <g> <g> <circle class="st0" cx="294.72" cy="102.58" r="4.54"></circle> </g> </g> <g> <g> <circle class="st0" cx="294.72" cy="102.58" r="2.67"></circle> </g> </g> </g> <g> <g> <g> <ellipse class="st0" cx="293.28" cy="94.2" rx="1.45" ry="0.21"></ellipse> </g> </g> </g> </g> <g> <g> <g> <path class="st1" d="M350.33,245.77c0,0.07-77.1,0.13-172.19,0.13c-95.12,0-172.21-0.06-172.21-0.13 c0-0.07,77.09-0.13,172.21-0.13C273.23,245.65,350.33,245.7,350.33,245.77z"></path> </g> </g> </g> <g> <g> <g> <g> <g> <path class="st0" d="M74.71,243.61c6.63-4.6,8.16-13.17,7.92-20.88c-0.04-1.29,0.11-2.64-0.5-3.77 c-0.61-1.13-2.03-1.91-3.19-1.37c-0.96,0.45-1.38,1.56-1.92,2.47c-0.72,1.22-1.78,2.23-3.03,2.87 c-0.82,0.42-1.84,0.68-2.64,0.23c-1.11-0.62-1.23-2.15-1.22-3.43c0.02-2.39,0.05-4.77,0.07-7.15c0.01-1.28,0.02-2.59-0.37-3.8 c-0.39-1.22-1.27-2.35-2.49-2.69c-1.22-0.35-2.72,0.35-2.99,1.6c-0.11,0.52,0,1.06-0.04,1.59c-0.04,0.53-0.29,1.12-0.79,1.26 c-0.51,0.15-1.02-0.22-1.4-0.59c-1.32-1.3-2.21-2.96-3.04-4.62c-0.83-1.66-1.64-3.36-2.83-4.77 c-1.19-1.41-2.85-2.54-4.68-2.65c-1.83-0.11-3.79,1.01-4.26,2.81c-0.47,1.8,0.58,3.64,1.72,5.1c1.69,2.17,3.7,4.1,5.93,5.69 c0.4,0.29,0.84,0.6,0.99,1.07c0.27,0.85-0.54,1.7-1.38,1.98c-0.96,0.31-1.99,0.21-2.99,0.33c-1,0.11-2.08,0.55-2.46,1.49 c-0.53,1.31,0.56,2.68,1.63,3.58c2.15,1.81,4.61,3.23,7.23,4.21c0.94,0.35,1.93,0.65,2.69,1.32c0.76,0.66,1.21,1.82,0.75,2.72 c-0.46,0.9-1.64,1.19-2.63,1c-0.99-0.19-1.87-0.72-2.8-1.08c-1.76-0.67-4.03-0.56-5.16,0.96c-0.74,1-0.81,2.39-0.44,3.58 c0.37,1.19,1.13,2.22,1.93,3.17c2.81,3.32,6.41,5.99,10.48,7.42C66.87,244.68,70.65,245.08,74.71,243.61"></path> </g> </g> </g> </g> <g> <g> <g> <g> <g> <path class="st1" d="M74.27,245.78c-0.27-3.05-0.41-3.12-1.53-7.01c-1.12-3.89-2.7-8.06-4.51-12.36 c-0.46-1.07-0.9-2.13-1.35-3.18c-0.44-1.04-0.89-2.08-1.38-3.06c-0.98-1.97-2.07-3.8-3.16-5.49 c-1.09-1.7-2.19-3.27-3.22-4.73c-1.04-1.46-2.03-2.81-2.99-3.99c-1.91-2.38-3.68-4.11-4.94-5.26c-0.63-0.57-1.13-1-1.48-1.29 c-0.17-0.14-0.3-0.24-0.39-0.32c-0.09-0.07-0.14-0.11-0.14-0.1c0,0,0.04,0.04,0.12,0.12c0.09,0.08,0.22,0.2,0.38,0.34 c0.33,0.3,0.83,0.74,1.45,1.32c1.24,1.16,2.98,2.91,4.87,5.29c0.95,1.19,1.93,2.54,2.96,4c1.03,1.47,2.12,3.04,3.2,4.74 c1.08,1.7,2.17,3.52,3.14,5.48c0.49,0.98,0.93,2.01,1.37,3.05c0.44,1.04,0.89,2.11,1.35,3.18c1.8,4.3,3.39,8.45,4.52,12.33 c1.14,3.88,1.29,3.92,1.58,6.96"></path> </g> </g> </g> </g> </g> <g> <g> <g> <g> <g> <path class="st1" d="M65.43,220.16c0.02,0,0.06-0.19,0.13-0.55c0.07-0.35,0.15-0.87,0.24-1.5c0.19-1.27,0.38-3.04,0.59-4.99 c0.21-1.95,0.43-3.71,0.63-4.98c0.1-0.63,0.19-1.15,0.25-1.5c0.06-0.35,0.09-0.55,0.07-0.56c-0.02,0-0.07,0.19-0.16,0.54 c-0.09,0.35-0.2,0.86-0.32,1.49c-0.25,1.26-0.5,3.03-0.7,4.98c-0.2,1.92-0.38,3.67-0.52,5c-0.07,0.6-0.12,1.11-0.17,1.51 C65.43,219.95,65.42,220.15,65.43,220.16z"></path> </g> </g> </g> </g> </g> <g> <g> <g> <g> <g> <path class="st1" d="M48.99,217.02c0,0.02,0.23,0.04,0.66,0.08c0.42,0.04,1.03,0.09,1.79,0.18c1.51,0.17,3.58,0.47,5.85,0.91 c2.27,0.44,4.31,0.93,5.78,1.32c0.73,0.19,1.32,0.36,1.73,0.48c0.41,0.12,0.64,0.18,0.64,0.16c0.01-0.02-0.21-0.1-0.61-0.25 c-0.4-0.14-0.98-0.34-1.72-0.55c-1.46-0.44-3.5-0.95-5.78-1.39c-2.28-0.44-4.36-0.72-5.88-0.84c-0.76-0.07-1.37-0.1-1.8-0.11 C49.23,217,48.99,217.01,48.99,217.02z"></path> </g> </g> </g> </g> </g> <g> <g> <g> <g> <g> <path class="st1" d="M72.54,238.46c0.01,0,0.05-0.07,0.11-0.2c0.08-0.16,0.17-0.36,0.28-0.59c0.24-0.52,0.58-1.27,0.98-2.22 c0.8-1.88,1.82-4.52,2.91-7.44c1.09-2.92,2.09-5.56,2.85-7.46c0.37-0.92,0.68-1.68,0.91-2.24c0.1-0.24,0.18-0.45,0.24-0.61 c0.05-0.14,0.08-0.22,0.07-0.22c-0.01,0-0.05,0.07-0.11,0.2c-0.08,0.16-0.17,0.36-0.28,0.59c-0.24,0.52-0.58,1.27-0.98,2.22 c-0.8,1.88-1.82,4.52-2.91,7.44c-1.09,2.92-2.09,5.56-2.85,7.46c-0.37,0.92-0.68,1.68-0.91,2.24 c-0.1,0.24-0.18,0.45-0.24,0.61C72.55,238.39,72.53,238.46,72.54,238.46z"></path> </g> </g> </g> </g> </g> <g> <g> <g> <g> <g> <path class="st1" d="M50.7,231.34c0,0.01,0.07,0.04,0.22,0.09c0.17,0.06,0.38,0.13,0.63,0.21c0.59,0.19,1.38,0.45,2.34,0.77 c1.97,0.65,4.69,1.57,7.69,2.6c3,1.03,5.73,1.93,7.72,2.54c0.99,0.3,1.8,0.54,2.36,0.69c0.26,0.07,0.47,0.13,0.65,0.17 c0.15,0.04,0.23,0.05,0.23,0.04c0-0.01-0.07-0.04-0.22-0.09c-0.17-0.06-0.38-0.13-0.63-0.21c-0.59-0.19-1.38-0.45-2.34-0.77 c-1.97-0.65-4.69-1.57-7.69-2.6c-3-1.03-5.73-1.93-7.72-2.54c-0.99-0.3-1.8-0.54-2.36-0.69c-0.26-0.07-0.47-0.13-0.65-0.17 C50.78,231.35,50.7,231.33,50.7,231.34z"></path> </g> </g> </g> </g> </g> </g> <g> <g> <g> <g> <g> <g> <g> <g> <g> <g> <g> <g> <path class="st1" d="M154.59,245.77l-68.46,0c-8.27-0.04-15.26-7.09-15.23-15.36l0.73-172.43 c0.04-8.28,6.77-14.96,15.05-14.92l68.78,0.32c8.27,0.04,14.95,6.77,14.91,15.05l-0.73,172.43 C169.61,239.13,162.87,245.81,154.59,245.77z"></path> </g> </g> </g> </g> </g> </g> </g> </g> </g> </g> </g> <g> <g> <g> <g> <g> <path class="st2" d="M155.36,49.93l-13.34-0.06c-1.79-0.01-3.24,1.5-3.25,3.37l-0.01,2.42c-0.01,1.87-1.46,3.38-3.25,3.37 l-25.99-0.12c-1.79-0.01-3.23-1.53-3.22-3.4l0.01-2.42c0.01-1.87-1.44-3.39-3.22-3.4l-4.69-0.02l-11.67-0.05 c-5.8-0.03-10.52,4.65-10.54,10.45l-0.71,168.31c-0.02,5.79,4.65,10.51,10.44,10.54l68.64,0.32 c5.8,0.03,10.52-4.65,10.54-10.45l0.71-168.31C165.83,54.67,161.16,49.95,155.36,49.93z"></path> </g> </g> </g> </g> <g> <g> <path class="st2" d="M126.23,207.41c-0.08,2.03-0.15,3.94-0.21,5.52h9.86l-1.21-6.06L126.23,207.41z"></path> </g> <g> <path class="st2" d="M86.16,209.95l0.09,2.99h38.79c0.07-1.68,0.14-3.54,0.21-5.46L86.16,209.95z"></path> </g> <g> <polygon class="st2" points="135.16,206.85 136.38,212.94 154.55,212.94 154.34,205.64 "></polygon> </g> <g> <polygon class="st2" points="127.21,121.75 130.65,101.82 121.65,101.15 121.65,121.75 "></polygon> </g> <g> <polygon class="st2" points="85.35,198.89 75.57,202.71 75.55,209.63 85.64,209 "></polygon> </g> <g> <polygon class="st2" points="85.3,197.33 84.77,178.77 84.76,178.77 84.76,172.22 75.7,173.18 75.58,201.13 85.3,197.32 "></polygon> </g> <g> <polygon class="st2" points="84.76,157.61 75.77,156.42 75.71,171.7 84.76,170.74 "></polygon> </g> <g> <polygon class="st2" points="151.75,172.5 151.38,177.82 140.76,178.96 141.58,183.17 153.63,182.26 153.45,176.23 154.41,172.23 "></polygon> </g> <g> <polygon class="st2" points="132.62,183.85 141.09,183.21 139.24,173.76 131.85,174.51 "></polygon> </g> <g> <polygon class="st2" points="132.7,184.83 133.35,192.71 134.5,203.51 134.97,205.88 154.31,204.65 153.66,183.25 "></polygon> </g> <g> <path class="st2" d="M99.42,147.64l0.74,1.27l-14.91,8.7v20.63l15.74-1.11l30.33-3.06l-1.11-13.53l-28.98-3.79l0.19-1.46 l28.66,3.74l-1.88-22.89l-28.37,2.73l-0.09-0.98l28.39-2.73l-0.98-11.94H99.86l-23.97,4.36l-0.12,27.35l9.07,1.2L99.42,147.64z M86.78,176.27c0,0,0.11-17.01,0-17.65l12.17-6.47l1.58,23.25L86.78,176.27z"></path> </g> <g> <polygon class="st2" points="150.76,172.6 139.74,173.71 140.57,177.99 150.45,176.93 "></polygon> </g> <g> <path class="st2" d="M126.37,203.77c-0.03,0.89-0.07,1.78-0.1,2.66l8.21-0.52l-0.42-2.12L126.37,203.77z"></path> </g> <g> <polygon class="st2" points="108.69,121.75 110.14,115.19 121.16,115.19 121.16,101.11 86.71,98.56 86.71,111.78 75.95,114.22 75.9,126.08 99.73,121.75 "></polygon> </g> <g> <path class="st2" d="M131.68,82.57l-0.29-1.21l13.15-5.21l-8.56-17.18c-0.15,0.02-0.31,0.04-0.47,0.04l-14.54-0.07l0.4,24.04 L131.68,82.57z"></path> </g> <g> <path class="st2" d="M151.62,73.36l-0.02-23.45l-9.57-0.04c-1.79-0.01-3.24,1.5-3.25,3.37l-0.01,2.42 c0,1.15-0.56,2.17-1.41,2.78l8.56,17.19L151.62,73.36z"></path> </g> <g> <path class="st2" d="M102.16,74.37l-1.11-24.69l-2.66-0.01l-10.4-0.05L83.55,71.7L102.16,74.37z M99.79,52.18l0.35,20.11 l-13.83-2.02l3.03-18.09L99.79,52.18z"></path> </g> <g> <path class="st2" d="M102.67,74.44l0,0.21c0.02,1.93,0.06,5.4,0.09,9.1l18.12-0.74l-0.4-24.06l-10.96-0.05 c-1.79-0.01-3.23-1.53-3.22-3.4l0.01-2.42c0.01-1.87-1.44-3.39-3.22-3.4l-1.53-0.01L102.67,74.44L102.67,74.44z"></path> </g> <g> <path class="st2" d="M82.09,71.49l4.39-21.87c-5.69,0.1-10.28,4.72-10.3,10.44l-0.05,10.9l0.05-0.32L82.09,71.49z"></path> </g> <g> <polygon class="st2" points="85.23,98.45 76.02,97.77 75.96,112.7 85.23,110.6 "></polygon> </g> <g> <polygon class="st2" points="81.99,71.97 76.13,71.13 76.03,95.31 77.29,95.4 "></polygon> </g> <g> <polygon class="st2" points="100.6,197.05 100.76,177.64 85.26,178.73 85.81,197.75 "></polygon> </g> <g> <path class="st2" d="M103.46,192.57l21.95,10.52c0.26-6.87,0.5-13.3,0.47-13.71l0.48-0.03l0.23-0.46 c0.31,0.16,0.31,0.16,0.15,4.84c-0.09,2.61-0.22,6.09-0.35,9.57h7.59l-1.12-10.55l-1.49-18.2l-28.68,2.89L103.46,192.57z"></path> </g> <g> <polygon class="st2" points="157.27,160.35 157.02,157.79 130.71,160.53 131.81,174.02 154.54,171.72 "></polygon> </g> <g> <polygon class="st2" points="121.16,116.67 111.33,116.67 110.21,121.75 121.16,121.75 "></polygon> </g> <g> <path class="st2" d="M153.21,118.38l-24.62-1.7l-1,5.82l1.04,12.62l25.96-2.5L153.21,118.38z M129.49,122.49l1.32-3.67 l21.38,1.35l1.24,10.5l-23.22,2.75L129.49,122.49z"></path> </g> <g> <polygon class="st2" points="155.76,144.77 154.68,133.6 128.7,136.1 129.68,147.98 "></polygon> </g> <g> <polygon class="st2" points="85.66,209.98 75.59,210.62 75.54,209.96 75.53,212.94 85.75,212.94 "></polygon> </g> <g> <path class="st2" d="M165.63,67.82l0.15,0.37l0.03-7.73c0.02-5.79-4.65-10.51-10.44-10.54l-3.27-0.01l0.02,23.26L165.63,67.82z "></path> </g> <g> <path class="st2" d="M125.39,203.62l-22.41-10.74l-0.79-15.38l-0.94,0.09l-0.16,19.92l-15.27,0.72l0.01,0.44l0,0.01l0,0 l0.3,10.27l39.15-2.48C125.32,205.54,125.35,204.58,125.39,203.62z M86.78,199.51l21.38-1.5l13.91,6.45l-35.29,1.91V199.51z"></path> </g> <g> <path class="st2" d="M159.26,93.65l0.92-5.44c-8.04-2.87-8.59-11.25-8.57-13.78l-5.25,2.08l7.9,15.85L159.26,93.65z"></path> </g> <g> <polygon class="st2" points="130.59,159.06 141.51,157.92 139.36,148.27 129.8,149.45 "></polygon> </g> <g> <polygon class="st2" points="153.25,101.98 132.84,101.98 131.14,101.85 128.84,115.22 153.06,116.89 152.5,111.08 154.88,102.5 "></polygon> </g> <g> <path class="st2" d="M152.75,99.52l0.26-6.38l-8.02-16.1l-12.44,4.92l4.28,17.56H152.75z M144.5,79l7.35,13.98l-1.06,4.36 l-12.58-0.47l-3.14-13.22L144.5,79z"></path> </g> <g> <polygon class="st2" points="155.92,176.48 156.3,189.01 165.14,188.51 165.17,189 156.31,189.5 156.76,204.5 165.12,203.97 165.18,204.95 156.79,205.48 157.02,212.94 165.16,212.94 165.34,171.13 157.01,171.97 "></polygon> </g> <g> <path class="st2" d="M102.18,74.87l-18.72-2.69l-4.68,23.33l23.49,1.74C102.36,93.66,102.27,82.64,102.18,74.87z"></path> </g> <g> <polygon class="st2" points="132.97,99.52 135.81,99.52 131.8,83.06 121.38,83.49 121.63,98.68 "></polygon> </g> <g> <path class="st2" d="M75.48,224.91l-0.01,3.45c0,0.11,0.01,0.21,0.01,0.32V224.91z"></path> </g> <g> <path class="st2" d="M102.74,97.28l18.39,1.36l-0.25-15.14l-18.12,0.74C102.8,89.37,102.82,94.83,102.74,97.28z"></path> </g> <g> <polygon class="st2" points="155.9,146.24 139.85,148.21 142,157.87 156.88,156.33 "></polygon> </g> <g> <path class="st2" d="M160.26,87.72l1.03-6.1l4.43,0.34l0.06-13.14l-13.67,5.41C151.82,83.48,157.63,86.73,160.26,87.72z"></path> </g> <g> <polygon class="st2" points="154.99,111.3 155.55,117.07 165.56,117.76 165.61,105.89 157.23,103.24 "></polygon> </g> <g> <path class="st2" d="M159.76,160.53l-2.63,10.93l8.21-0.83l0.05-11.47c-2.52-0.66-4.72-1.2-5.9-1.43L159.76,160.53z"></path> </g> <g> <polygon class="st2" points="154.22,99.71 165.63,103.31 165.65,96.82 154.45,93.93 "></polygon> </g> <g> <path class="st2" d="M159.34,156.23c0.92,0.14,2.66,0.51,6.05,1.4l0.11-25.07l-8.37,0.81L159.34,156.23z"></path> </g> <g> <polygon class="st2" points="157.03,132.39 165.51,131.57 165.56,119.24 155.69,118.56 "></polygon> </g> <g> <path class="st2" d="M161.2,88.03c1.61,0.49,3.1,0.87,4.48,1.14l0.03-6.23l-3.61-0.28L161.2,88.03z"></path> </g> <g> <path class="st2" d="M160.21,93.9l5.45,1.41l0.02-5.63c-1.41-0.28-2.93-0.67-4.56-1.16L160.21,93.9z"></path> </g> <g> <path class="st3" d="M85.66,209.98l0.09,2.96h0.49l-0.09-2.99l39.09-2.47c-0.07,1.92-0.15,3.78-0.21,5.46h0.98 c0.06-1.58,0.14-3.49,0.21-5.52l8.44-0.53l1.21,6.06h0.5l-1.21-6.09l19.17-1.21l0.22,7.3h2.46l-0.22-7.46l8.39-0.53l-0.06-0.98 l-8.36,0.53l-0.45-14.99l8.85-0.5l-0.03-0.49l-8.84,0.5l-0.38-12.53l1.09-4.51l8.33-0.84l0-0.49l-8.21,0.83l2.63-10.93 l-0.27-2.79c1.18,0.23,3.38,0.77,5.9,1.43l0.01-1.53c-3.39-0.89-5.13-1.26-6.05-1.4l-2.21-22.87l8.37-0.81l0-0.99l-8.47,0.81 l-1.34-13.83l9.86,0.68l0.01-1.48l-10.01-0.69l-0.56-5.76l2.24-8.06l8.38,2.65l0.01-2.58l-11.41-3.6l0.23-5.78l11.21,2.9 l0.01-1.52l-5.45-1.41l0.91-5.38c1.63,0.5,3.16,0.88,4.56,1.16l0-0.51c-1.38-0.28-2.88-0.66-4.48-1.14l0.9-5.36l3.61,0.28 l0-0.99l-4.43-0.34l-1.03,6.1c-2.62-0.99-8.43-4.24-8.15-13.49l13.67-5.41l0-0.63l-0.15-0.37l-13.52,5.35l-0.02-23.26l-0.49,0 l0.02,23.45l-5.7,2.25l-8.56-17.19c-0.4,0.29-0.87,0.48-1.37,0.56l8.56,17.18l-13.15,5.21l0.29,1.21L121.37,83l-0.4-24.04 l-0.49,0l0.4,24.06l-18.12,0.74c-0.03-3.71-0.07-7.18-0.09-9.1l0-0.21l-0.01,0l-1.11-24.76l-0.49,0l1.11,24.69L83.55,71.7 l4.43-22.08l-1.27-0.01c-0.08,0-0.16,0.01-0.24,0.01l-4.39,21.87l-5.91-0.85l-0.05,0.32l0,0.17l5.86,0.84l-4.7,23.43 l-1.26-0.09l-0.01,2.47l9.21,0.68v12.15l-9.28,2.1l-0.01,1.51l10.76-2.43V98.56l34.45,2.55v14.08h-11.02l-1.45,6.55h-8.97 l-23.83,4.34l-0.01,1.5l23.97-4.36h27.29l0.98,11.94l-28.39,2.73l0.09,0.98l28.37-2.73l1.88,22.89l-28.66-3.74l-0.19,1.46 l28.98,3.79l1.11,13.53l-30.33,3.06l-15.74,1.11v-20.63l14.91-8.7l-0.74-1.27l-14.57,8.5l-9.07-1.2l-0.01,1.49l8.99,1.19v13.13 l-9.05,0.96l-0.01,1.48l9.06-0.96v6.55l0.01,0l0.53,18.56l0-0.01l-9.72,3.81l-0.01,1.59l9.77-3.83L85.64,209l-10.09,0.64 l0,0.33l0.04,0.66L85.66,209.98z M126.27,206.43c0.03-0.87,0.07-1.76,0.1-2.66l7.68,0.02l0.42,2.12L126.27,206.43z M134.97,205.88l-0.47-2.37l-1.15-10.8l-0.65-7.88l20.96-1.58l0.64,21.41L134.97,205.88z M139.74,173.71l11.03-1.11l-0.31,4.33 l-9.88,1.07L139.74,173.71z M139.24,173.76l1.84,9.45l-8.47,0.64l-0.77-9.34L139.24,173.76z M153.63,182.26l-12.05,0.91 l-0.82-4.21l10.62-1.15l0.38-5.32l2.66-0.27l-0.96,4L153.63,182.26z M139.36,148.27l2.15,9.65l-10.93,1.14l-0.79-9.61 L139.36,148.27z M142,157.87l-2.16-9.66l16.05-1.98l0.98,10.09L142,157.87z M153.06,116.89l-24.22-1.68l2.31-13.36l1.69,0.13 l20.41,0l1.64,0.52l-2.38,8.58L153.06,116.89z M151.6,74.43c-0.02,2.54,0.53,10.92,8.57,13.78l-0.92,5.44l-5-1.29l-7.9-15.85 L151.6,74.43z M144.98,77.05l8.02,16.1l-0.26,6.38h-15.93l-4.28-17.56L144.98,77.05z M131.8,83.06l4.01,16.46h-2.83 l-11.35-0.84l-0.25-15.2L131.8,83.06z M120.89,83.51l0.25,15.14l-18.39-1.36c0.08-2.46,0.06-7.92,0.02-13.04L120.89,83.51z M83.46,72.18l18.72,2.69c0.09,7.77,0.18,18.79,0.08,22.38l-23.49-1.74L83.46,72.18z M130.65,101.82l-3.44,19.93h-5.57v-20.6 L130.65,101.82z M111.33,116.67h9.83v5.08h-10.95L111.33,116.67z M127.58,122.5l1-5.82l24.62,1.7l1.38,14.24l-25.96,2.5 L127.58,122.5z M154.68,133.6l1.08,11.17l-26.08,3.21l-0.98-11.88L154.68,133.6z M130.71,160.53l26.32-2.74l0.25,2.56 l-2.73,11.37l-22.72,2.29L130.71,160.53z M132.86,192.75l1.12,10.55h-7.59c0.13-3.48,0.26-6.96,0.35-9.57 c0.16-4.68,0.16-4.68-0.15-4.84l-0.23,0.46l-0.48,0.03c0.02,0.41-0.21,6.84-0.47,13.71l-21.95-10.52l-0.78-15.12l28.68-2.89 L132.86,192.75z M100.76,177.64l-0.15,19.41l-14.8,0.7l-0.55-19.02L100.76,177.64z M85.83,198.7L85.83,198.7l0-0.01l-0.01-0.44 l15.27-0.72l0.16-19.92l0.94-0.09l0.79,15.38l22.41,10.74c-0.04,0.96-0.07,1.92-0.11,2.87l-39.15,2.48L85.83,198.7z"></path> </g> <g> <polygon class="st4" points="108.16,198.01 86.78,199.51 86.78,206.37 122.07,204.46 "></polygon> </g> <g> <polygon class="st4" points="152.2,120.17 130.81,118.81 129.49,122.49 130.22,133.42 153.44,130.67 "></polygon> </g> <g> <path class="st4" d="M85.91,238.9l68.64,0.32c5.8,0.03,10.52-4.65,10.54-10.45l0.07-15.83h-8.15h-2.46h-18.18h-0.5h-9.86h-0.98 H86.24h-0.49H75.53l-0.05,11.98v3.77C75.63,234.33,80.22,238.88,85.91,238.9z"></path> </g> <g> <polygon class="st4" points="100.15,72.29 99.79,52.18 89.35,52.18 86.32,70.26 "></polygon> </g> <g> <polygon class="st4" points="150.78,97.34 151.85,92.99 144.5,79 135.07,83.65 138.21,96.87 "></polygon> </g> <g> <path class="st4" d="M86.78,158.62c0.11,0.64,0,17.65,0,17.65l13.75-0.87l-1.58-23.25L86.78,158.62z"></path> </g> </g> <g> <polygon class="st4" points="132.62,172.44 131.9,161.9 155.47,158.87 155.47,160.68 152.62,170.38 "></polygon> </g> <g> <g> <g> <g> <circle class="st0" cx="112.31" cy="85" r="2.87"></circle> </g> <g class="st5"> <circle class="st3" cx="112.31" cy="85" r="2.87"></circle> </g> <g> <circle class="st0" cx="112.31" cy="84.91" r="1.91"></circle> </g> <g> <circle class="st0" cx="155.47" cy="199.7" r="1.23"></circle> </g> <g> <path class="st0" d="M154.74,199.3l-0.3-6.88l-20.73,1.01c-0.54,0.03-1.08-0.09-1.57-0.33l-29.4-14.85 c-0.68-0.34-1.13-1.03-1.17-1.79l-4-77.6c-0.02-0.37,0.12-0.73,0.39-0.99c0.27-0.26,0.63-0.39,1-0.37l12.6,0.93V84.66h1.48 v13.96c0,0.36-0.15,0.71-0.41,0.95c-0.26,0.24-0.62,0.37-0.98,0.34l-12.59-0.93l3.99,77.4c0.01,0.23,0.15,0.44,0.36,0.55 l29.39,14.85c0.26,0.13,0.54,0.19,0.83,0.18l20.9-1.02c0.35-0.01,0.68,0.1,0.94,0.34c0.26,0.24,0.41,0.56,0.42,0.91l0.3,7.05 L154.74,199.3z"></path> </g> </g> <g> <circle class="st0" cx="99.99" cy="132.56" r="3.72"></circle> </g> <g> <circle class="st6" cx="99.99" cy="132.56" r="2.58"></circle> <path class="st0" d="M99.99,135.33c-1.53,0-2.77-1.24-2.77-2.77c0-1.53,1.24-2.77,2.77-2.77c1.53,0,2.77,1.24,2.77,2.77 C102.76,134.08,101.52,135.33,99.99,135.33z M99.99,130.16c-1.32,0-2.4,1.08-2.4,2.4c0,1.32,1.08,2.4,2.4,2.4 c1.32,0,2.4-1.08,2.4-2.4C102.39,131.23,101.32,130.16,99.99,130.16z"></path> </g> </g> <g> <g> <g> <path class="st0" d="M121.9,116.96h-17.71c-0.86,0-1.56,0.7-1.56,1.56v6.41c0,0.86,0.7,1.56,1.56,1.56h0.21v1.53l1.77-1.53 h15.73c0.86,0,1.56-0.7,1.56-1.56v-6.41C123.46,117.65,122.76,116.96,121.9,116.96z"></path> </g> </g> <g class="st7"> <g> <path class="st3" d="M121.9,116.96h-17.71c-0.86,0-1.56,0.7-1.56,1.56v6.41c0,0.86,0.7,1.56,1.56,1.56h0.21v1.53l1.77-1.53 h15.73c0.86,0,1.56-0.7,1.56-1.56v-6.41C123.46,117.65,122.76,116.96,121.9,116.96z"></path> </g> </g> <g> <path class="st3" d="M106.62,121.62c0-0.59,0.45-1.02,1.07-1.02c0.61,0,1.06,0.43,1.06,1.02c0,0.59-0.45,1.02-1.06,1.02 C107.07,122.65,106.62,122.21,106.62,121.62z M108.46,121.62c0-0.44-0.33-0.77-0.77-0.77c-0.45,0-0.78,0.33-0.78,0.77 c0,0.44,0.33,0.77,0.78,0.77C108.13,122.39,108.46,122.06,108.46,121.62z"></path> <path class="st3" d="M110.71,121.86c0,0.46-0.32,0.77-0.77,0.77c-0.22,0-0.42-0.09-0.54-0.26v0.24h-0.26v-2.12h0.27v0.83 c0.13-0.16,0.31-0.24,0.53-0.24C110.39,121.09,110.71,121.4,110.71,121.86z M110.43,121.86c0-0.32-0.22-0.53-0.51-0.53 c-0.29,0-0.51,0.21-0.51,0.53c0,0.32,0.22,0.53,0.51,0.53C110.21,122.4,110.43,122.19,110.43,121.86z"></path> <path class="st3" d="M110.57,123.1l0.09-0.21c0.05,0.05,0.13,0.07,0.22,0.07c0.15,0,0.23-0.09,0.23-0.27v-1.59h0.27v1.58 c0,0.31-0.17,0.5-0.48,0.5C110.77,123.19,110.65,123.17,110.57,123.1z M111.06,120.64c0-0.1,0.08-0.18,0.19-0.18 c0.11,0,0.19,0.08,0.19,0.17c0,0.1-0.08,0.18-0.19,0.18C111.14,120.81,111.06,120.74,111.06,120.64z"></path> <path class="st3" d="M113.27,121.96h-1.23c0.03,0.27,0.25,0.44,0.55,0.44c0.18,0,0.33-0.06,0.44-0.18l0.15,0.18 c-0.14,0.16-0.35,0.25-0.6,0.25c-0.49,0-0.82-0.32-0.82-0.77c0-0.45,0.32-0.77,0.76-0.77c0.44,0,0.75,0.31,0.75,0.78 C113.27,121.9,113.27,121.93,113.27,121.96z M112.04,121.76h0.97c-0.03-0.25-0.22-0.43-0.49-0.43 C112.26,121.32,112.07,121.5,112.04,121.76z"></path> <path class="st3" d="M113.51,121.86c0-0.45,0.33-0.77,0.8-0.77c0.27,0,0.5,0.11,0.62,0.32l-0.21,0.13 c-0.1-0.15-0.25-0.22-0.41-0.22c-0.3,0-0.52,0.21-0.52,0.53c0,0.33,0.22,0.53,0.52,0.53c0.17,0,0.31-0.07,0.41-0.22l0.21,0.13 c-0.12,0.21-0.35,0.33-0.62,0.33C113.85,122.64,113.51,122.32,113.51,121.86z"></path> <path class="st3" d="M116.16,122.53c-0.08,0.07-0.21,0.11-0.33,0.11c-0.31,0-0.48-0.17-0.48-0.47v-0.83h-0.26v-0.23h0.26 v-0.33h0.27v0.33h0.43v0.23h-0.43v0.82c0,0.16,0.09,0.25,0.24,0.25c0.08,0,0.16-0.03,0.21-0.07L116.16,122.53z"></path> <path class="st3" d="M116.44,120.64c0-0.1,0.08-0.18,0.19-0.18c0.11,0,0.19,0.08,0.19,0.17c0,0.1-0.08,0.18-0.19,0.18 C116.52,120.81,116.44,120.74,116.44,120.64z M116.49,121.11h0.27v1.52h-0.27V121.11z"></path> <path class="st3" d="M118.63,121.11l-0.66,1.52h-0.28l-0.66-1.52h0.29l0.52,1.22l0.53-1.22H118.63z"></path> <path class="st3" d="M120.21,121.96h-1.23c0.03,0.27,0.25,0.44,0.55,0.44c0.18,0,0.33-0.06,0.44-0.18l0.15,0.18 c-0.14,0.16-0.35,0.25-0.6,0.25c-0.49,0-0.81-0.32-0.81-0.77c0-0.45,0.32-0.77,0.76-0.77c0.44,0,0.75,0.31,0.75,0.78 C120.21,121.9,120.21,121.93,120.21,121.96z M118.98,121.76h0.97c-0.03-0.25-0.22-0.43-0.49-0.43 C119.2,121.32,119.01,121.5,118.98,121.76z"></path> </g> </g> <g> <g> <path class="st0" d="M116.05,75.36c0-2.27-2.05-4.06-4.4-3.61c-1.48,0.28-2.65,1.48-2.91,2.96c-0.16,0.92,0.03,1.79,0.45,2.51 h0l0.01,0.01c0.14,0.24,0.32,0.41,0.5,0.66l2.14,2.83c0.27,0.35,0.8,0.35,1.06,0l2.1-2.79c0,0,0.39-0.47,0.53-0.71l0.01-0.01 h0C115.87,76.67,116.05,76.04,116.05,75.36z M112.37,76.96c-0.89,0-1.62-0.73-1.62-1.62c0-0.89,0.73-1.62,1.62-1.62 c0.89,0,1.62,0.73,1.62,1.62C113.99,76.23,113.27,76.96,112.37,76.96z"></path> </g> </g> </g> <g> <g> <g> <path class="st1" d="M92.21,220.42h-0.69v-0.25h1.66v0.25H92.5v1.75h-0.28V220.42z"></path> </g> <g> <path class="st1" d="M93.16,221.41c0-0.45,0.33-0.77,0.79-0.77c0.45,0,0.79,0.32,0.79,0.77c0,0.45-0.33,0.78-0.79,0.78 C93.49,222.19,93.16,221.86,93.16,221.41z M94.46,221.41c0-0.32-0.22-0.53-0.51-0.53c-0.29,0-0.51,0.21-0.51,0.53 c0,0.32,0.22,0.54,0.51,0.54C94.24,221.95,94.46,221.74,94.46,221.41z"></path> </g> <g> <path class="st1" d="M95.97,222.08c-0.08,0.07-0.21,0.11-0.33,0.11c-0.31,0-0.48-0.17-0.48-0.48v-0.83H94.9v-0.23h0.26v-0.33 h0.27v0.33h0.43v0.23h-0.43v0.82c0,0.16,0.09,0.25,0.24,0.25c0.08,0,0.16-0.03,0.21-0.07L95.97,222.08z"></path> </g> <g> <path class="st1" d="M97.5,221.25v0.92h-0.26v-0.2c-0.09,0.14-0.26,0.22-0.5,0.22c-0.34,0-0.56-0.18-0.56-0.45 c0-0.24,0.16-0.44,0.61-0.44h0.43v-0.05c0-0.23-0.13-0.37-0.41-0.37c-0.18,0-0.36,0.06-0.48,0.16l-0.11-0.21 c0.16-0.13,0.38-0.19,0.63-0.19C97.26,220.64,97.5,220.84,97.5,221.25z M97.22,221.71v-0.21H96.8c-0.27,0-0.35,0.11-0.35,0.23 c0,0.15,0.13,0.25,0.33,0.25C96.99,221.98,97.16,221.88,97.22,221.71z"></path> </g> <g> <path class="st1" d="M98.01,220.05h0.27v2.12h-0.27V220.05z"></path> </g> <g> <path class="st1" d="M101.01,220.05v2.12h-0.26v-0.24c-0.12,0.17-0.32,0.26-0.54,0.26c-0.44,0-0.77-0.31-0.77-0.78 c0-0.46,0.32-0.77,0.77-0.77c0.21,0,0.4,0.08,0.53,0.24v-0.84H101.01z M100.73,221.41c0-0.32-0.22-0.53-0.51-0.53 c-0.29,0-0.51,0.21-0.51,0.53c0,0.32,0.22,0.54,0.51,0.54C100.51,221.95,100.73,221.74,100.73,221.41z"></path> </g> <g> <path class="st1" d="M101.48,220.19c0-0.1,0.08-0.18,0.19-0.18c0.11,0,0.19,0.08,0.19,0.17c0,0.1-0.08,0.18-0.19,0.18 C101.56,220.36,101.48,220.29,101.48,220.19z M101.53,220.65h0.27v1.52h-0.27V220.65z"></path> </g> <g> <path class="st1" d="M102.13,222.01l0.11-0.22c0.13,0.09,0.33,0.16,0.53,0.16c0.25,0,0.36-0.08,0.36-0.21 c0-0.34-0.96-0.05-0.96-0.65c0-0.27,0.24-0.46,0.63-0.46c0.2,0,0.42,0.05,0.55,0.14l-0.12,0.22 c-0.14-0.09-0.29-0.12-0.44-0.12c-0.24,0-0.36,0.09-0.36,0.21c0,0.36,0.96,0.07,0.96,0.65c0,0.27-0.25,0.45-0.65,0.45 C102.51,222.19,102.26,222.11,102.13,222.01z"></path> </g> <g> <path class="st1" d="M104.61,222.08c-0.08,0.07-0.21,0.11-0.33,0.11c-0.31,0-0.48-0.17-0.48-0.48v-0.83h-0.26v-0.23h0.26 v-0.33h0.27v0.33h0.43v0.23h-0.43v0.82c0,0.16,0.09,0.25,0.24,0.25c0.08,0,0.16-0.03,0.21-0.07L104.61,222.08z"></path> </g> <g> <path class="st1" d="M106.14,221.25v0.92h-0.26v-0.2c-0.09,0.14-0.26,0.22-0.5,0.22c-0.34,0-0.56-0.18-0.56-0.45 c0-0.24,0.16-0.44,0.61-0.44h0.43v-0.05c0-0.23-0.13-0.37-0.41-0.37c-0.18,0-0.36,0.06-0.48,0.16l-0.11-0.21 c0.16-0.13,0.38-0.19,0.63-0.19C105.91,220.64,106.14,220.84,106.14,221.25z M105.87,221.71v-0.21h-0.42 c-0.27,0-0.35,0.11-0.35,0.23c0,0.15,0.13,0.25,0.33,0.25C105.64,221.98,105.8,221.88,105.87,221.71z"></path> </g> <g> <path class="st1" d="M108.09,221.3v0.87h-0.27v-0.84c0-0.3-0.15-0.44-0.41-0.44c-0.29,0-0.48,0.17-0.48,0.5v0.78h-0.27v-1.52 h0.26v0.23c0.11-0.15,0.31-0.24,0.55-0.24C107.83,220.64,108.09,220.85,108.09,221.3z"></path> </g> <g> <path class="st1" d="M108.47,221.41c0-0.45,0.33-0.77,0.8-0.77c0.27,0,0.5,0.11,0.62,0.32l-0.21,0.13 c-0.1-0.15-0.25-0.22-0.41-0.22c-0.3,0-0.52,0.21-0.52,0.53c0,0.33,0.22,0.54,0.52,0.54c0.17,0,0.31-0.07,0.41-0.22l0.21,0.13 c-0.12,0.21-0.35,0.33-0.62,0.33C108.8,222.19,108.47,221.86,108.47,221.41z"></path> </g> <g> <path class="st1" d="M111.58,221.5h-1.23c0.03,0.27,0.25,0.44,0.55,0.44c0.18,0,0.33-0.06,0.44-0.18l0.15,0.18 c-0.14,0.16-0.35,0.25-0.6,0.25c-0.49,0-0.82-0.32-0.82-0.78c0-0.45,0.32-0.77,0.76-0.77c0.44,0,0.75,0.31,0.75,0.78 C111.59,221.44,111.58,221.48,111.58,221.5z M110.35,221.31h0.97c-0.03-0.25-0.22-0.43-0.49-0.43 C110.57,220.87,110.38,221.05,110.35,221.31z"></path> </g> </g> <g> <g> <path class="st1" d="M94.01,224.41v4.78h-1.11v-3.89h-0.96v-0.89H94.01z"></path> </g> <g> <path class="st1" d="M96.13,228.58c0,0.18-0.03,0.31-0.18,0.68l-0.39,0.98h-0.68l0.3-1.08c-0.22-0.09-0.37-0.3-0.37-0.58 c0-0.4,0.29-0.66,0.66-0.66C95.86,227.92,96.13,228.19,96.13,228.58z"></path> </g> <g> <path class="st1" d="M98.36,224.41v4.78h-1.11v-3.89H96.3v-0.89H98.36z"></path> </g> <g> <path class="st1" d="M99.2,226.8c0-1.58,0.87-2.47,2.05-2.47c1.18,0,2.05,0.89,2.05,2.47c0,1.58-0.87,2.47-2.05,2.47 C100.07,229.27,99.2,228.38,99.2,226.8z M102.18,226.8c0-1.08-0.38-1.54-0.93-1.54c-0.55,0-0.93,0.45-0.93,1.54 c0,1.08,0.38,1.54,0.93,1.54C101.8,228.34,102.18,227.89,102.18,226.8z"></path> </g> <g> <path class="st1" d="M103.83,226.8c0-1.58,0.87-2.47,2.05-2.47c1.18,0,2.05,0.89,2.05,2.47c0,1.58-0.87,2.47-2.05,2.47 C104.7,229.27,103.83,228.38,103.83,226.8z M106.81,226.8c0-1.08-0.38-1.54-0.93-1.54c-0.55,0-0.93,0.45-0.93,1.54 c0,1.08,0.38,1.54,0.93,1.54C106.43,228.34,106.81,227.89,106.81,226.8z"></path> </g> <g> <path class="st1" d="M116.82,227.09v2.1h-1.06v-1.94c0-0.59-0.27-0.87-0.7-0.87c-0.48,0-0.81,0.31-0.81,0.96v1.84h-1.06v-1.94 c0-0.59-0.25-0.87-0.7-0.87c-0.47,0-0.81,0.31-0.81,0.96v1.84h-1.06v-3.67h1.02v0.42c0.27-0.31,0.68-0.48,1.15-0.48 c0.51,0,0.95,0.2,1.21,0.6c0.29-0.38,0.77-0.6,1.32-0.6C116.19,225.47,116.82,225.97,116.82,227.09z"></path> </g> </g> <g> <g> <g> <circle class="st0" cx="85.01" cy="224.04" r="4.12"></circle> </g> </g> <g> <g> <g> <path class="st6" d="M83.35,224.79c0-0.02,0.38-0.05,1.06-0.07c0.67-0.02,1.63-0.03,2.79-0.05l-0.08,0.18 c-0.33-0.38-0.68-0.78-1.05-1.21l-0.07-0.08l0.06-0.08c0.33-0.41,0.68-0.85,1.04-1.3l0.1,0.21c-0.15,0-0.31,0-0.47,0 c-1.21,0-2.36-0.01-3.38-0.01l0.11-0.11c-0.01,1.25-0.03,2.3-0.05,3.04c-0.02,0.74-0.04,1.16-0.07,1.16 c-0.03,0-0.05-0.43-0.07-1.16c-0.02-0.74-0.04-1.79-0.05-3.04l0-0.11l0.12,0c1.01,0,2.16-0.01,3.38-0.01 c0.16,0,0.32,0,0.47,0l0.27,0l-0.17,0.21c-0.36,0.45-0.71,0.88-1.05,1.29l0-0.16c0.37,0.43,0.71,0.85,1.03,1.23l0.16,0.19 l-0.24,0c-1.15-0.01-2.11-0.03-2.79-0.05C83.73,224.84,83.35,224.82,83.35,224.79z"></path> </g> </g> </g> </g> </g> <g> <g> <path class="st0" d="M151.63,217.01h-12.45c-1.32,0-2.38,1.07-2.38,2.38v9.8c0,1.32,1.07,2.38,2.38,2.38h0.32v2.34l2.71-2.34 h9.43c1.32,0,2.38-1.07,2.38-2.38v-9.8C154.01,218.08,152.95,217.01,151.63,217.01z"></path> </g> <g> <g> <g> <path class="st6" d="M140.37,221.51v5.03c0,0.11,0.09,0.2,0.2,0.2h10.54c0.11,0,0.2-0.09,0.2-0.2l-0.02-1.84 c0-0.04-0.01-0.08-0.04-0.11l-1.51-2.02c-0.04-0.05-0.09-0.08-0.16-0.08l-1.74-0.01c-0.11,0-0.19-0.09-0.19-0.2v-0.76 c0-0.11-0.09-0.2-0.2-0.2h-6.87C140.46,221.31,140.37,221.4,140.37,221.51z"></path> </g> </g> <g> <g> <path class="st0" d="M148.12,222.9v1.61c0,0.06,0.05,0.11,0.11,0.11l2.33-0.04c0.09,0,0.14-0.1,0.09-0.18l-1.09-1.6 c-0.02-0.03-0.06-0.05-0.1-0.05l-1.24,0.03C148.17,222.79,148.12,222.84,148.12,222.9z"></path> </g> </g> <g> <g> <rect x="140.16" y="226.88" class="st6" width="11.35" height="0.35"></rect> </g> </g> <g> <g> <circle class="st0" cx="142.79" cy="227.02" r="1.12"></circle> </g> </g> <g> <g> <circle class="st6" cx="142.79" cy="227.02" r="0.66"></circle> </g> </g> <g> <g> <g> <ellipse class="st0" cx="147.62" cy="224.02" rx="0.05" ry="2.71"></ellipse> </g> </g> </g> <g> <g> <g> <circle class="st0" cx="148.91" cy="227.02" r="1.12"></circle> </g> </g> <g> <g> <circle class="st6" cx="148.9" cy="227.02" r="0.66"></circle> </g> </g> </g> <g> <g> <g> <ellipse class="st0" cx="148.55" cy="224.95" rx="0.36" ry="0.05"></ellipse> </g> </g> </g> </g> </g> </g> </g> <g> <g> <g> <g> <path class="st8" d="M266.31,142.43c0,0,7.94,1.34,8.58,1.51c0.64,0.17,3.15,1.36,3.28,2.13c0.13,0.77,0,3.02,0,3.02 s-0.45,0.37-0.74-0.37c-0.28-0.74-0.24-2.2-0.24-2.2l-1.41-0.54l0.77,1.36l0.13,3.2c0,0-0.98-0.09-1.17-0.85 c-0.19-0.76-0.19-1.62-0.19-1.62l-1.03-0.87l0.77,1.04l0.26,2.3c0,0-0.75,0.24-0.98-0.27c-0.24-0.51-0.25-2.03-0.25-2.03 l-2.89-1.01l-1.92,1.07l-3.58-2.02L266.31,142.43z"></path> </g> </g> <g> <g> <g> <g> <path class="st0" d="M238.53,122.82c0.04,0.16,9.56,13.27,9.56,13.27l19.14,5.95l-0.87,7.19l-23.45-4.72l-8.32-9.55 L238.53,122.82z"></path> </g> </g> <g class="st9"> <g> <path d="M238.53,122.82c0.04,0.16,9.56,13.27,9.56,13.27l19.14,5.95l-0.87,7.19l-23.45-4.72l-8.32-9.55L238.53,122.82z"></path> </g> </g> </g> </g> </g> <g> <g> <g> <g> <g> <path class="st2" d="M205.2,148.49h-39.1c-0.83,0-1.5-0.67-1.5-1.5v-4.62c0-0.83,0.67-1.5,1.5-1.5h39.1 c0.83,0,1.5,0.67,1.5,1.5v4.62C206.69,147.82,206.02,148.49,205.2,148.49z"></path> </g> </g> <g> <g> <g> <path class="st1" d="M205.2,148.49c0-0.01,0.09,0,0.25-0.04c0.16-0.03,0.4-0.1,0.65-0.3c0.25-0.19,0.5-0.53,0.55-0.99 c0.02-0.46,0-1.01,0-1.62c0-0.61-0.01-1.29-0.01-2.04c0-0.37,0-0.76-0.01-1.16c-0.01-0.39-0.19-0.78-0.51-1.05 c-0.16-0.14-0.35-0.23-0.56-0.29c-0.21-0.06-0.43-0.05-0.66-0.05c-0.46,0-0.94,0-1.44,0c-0.99,0-2.03,0.01-3.13,0.01 c-8.77,0.01-20.88,0.02-34.24,0.04c-0.38,0-0.76,0.17-1.02,0.45c-0.26,0.29-0.38,0.66-0.36,1.06c0,0.83,0,1.65,0,2.46 c0,0.41,0,0.81,0,1.22l0,0.6c0,0.21,0,0.39,0.05,0.56c0.09,0.35,0.34,0.66,0.66,0.84c0.16,0.09,0.34,0.14,0.52,0.16 c0.17,0.02,0.39,0.01,0.58,0.01c3.15,0,6.19,0.01,9.09,0.01c5.79,0.01,11.01,0.02,15.4,0.03c4.37,0.02,7.92,0.03,10.38,0.04 c1.22,0.01,2.17,0.02,2.82,0.02c0.31,0.01,0.56,0.01,0.73,0.01C205.11,148.48,205.2,148.49,205.2,148.49 s-0.08,0.01-0.25,0.01c-0.18,0-0.42,0.01-0.73,0.01c-0.66,0.01-1.61,0.01-2.82,0.02c-2.46,0.01-6,0.02-10.38,0.04 c-4.39,0.01-9.6,0.02-15.4,0.03c-2.9,0-5.94,0-9.09,0.01c-0.2,0-0.38,0.01-0.61-0.01c-0.21-0.02-0.42-0.09-0.61-0.19 c-0.38-0.21-0.67-0.57-0.78-0.99c-0.06-0.21-0.06-0.44-0.06-0.63l0-0.6c0-0.4,0-0.81,0-1.22c0-0.81,0-1.63,0-2.46 c-0.03-0.42,0.12-0.9,0.42-1.23c0.3-0.33,0.75-0.54,1.2-0.53c13.37,0.01,25.47,0.03,34.24,0.04c1.1,0,2.14,0.01,3.13,0.01 c0.49,0,0.97,0,1.44,0c0.23,0,0.47-0.01,0.7,0.06c0.23,0.06,0.44,0.17,0.61,0.32c0.35,0.3,0.54,0.73,0.54,1.16 c0,0.4,0,0.79,0,1.17c0,0.74-0.01,1.43-0.01,2.04c-0.01,0.61,0,1.15-0.02,1.63c-0.06,0.49-0.34,0.83-0.6,1.03 c-0.26,0.2-0.52,0.26-0.68,0.28C205.28,148.5,205.2,148.49,205.2,148.49z"></path> </g> </g> </g> </g> <g> <g> <g> <g> <g> <g> <g> <circle class="st1" cx="310.4" cy="225.77" r="20.11"></circle> </g> </g> </g> </g> </g> </g> <g> <g> <g> <g> <g> <g> <path class="st1" d="M290.29,225.43c0,0.02,0,0.03,0,0.05c-0.16,11.11,8.71,20.24,19.82,20.4 c11.11,0.16,20.24-8.71,20.4-19.82c0-0.02,0-0.03,0-0.05L290.29,225.43z"></path> </g> </g> </g> </g> </g> </g> <g> <g> <g> <g> <g> <g> <circle class="st6" cx="310.4" cy="225.77" r="14.12"></circle> </g> </g> </g> </g> </g> </g> <g> <g> <g> <g> <g> <g> <path class="st10" d="M310.6,211.65c-7.8-0.11-14.21,6.12-14.32,13.92l28.24,0.41 C324.63,218.18,318.4,211.77,310.6,211.65z"></path> </g> </g> </g> </g> </g> </g> <g> <g> <g> <g> <g> <g> <circle class="st1" cx="310.4" cy="225.77" r="8.6"></circle> </g> </g> </g> </g> </g> </g> </g> <g> <g> <path class="st0" d="M300.85,196.28c0,0,20.59-6.23,29.11,16.15l-43.1,13.35L300.85,196.28z"></path> </g> </g> <g> <g> <g> <g> <g> <g> <g> <circle class="st1" cx="186.29" cy="225.77" r="20.11"></circle> </g> </g> </g> </g> </g> </g> <g> <g> <g> <g> <g> <g> <path class="st1" d="M166.18,225.43c0,0.02,0,0.03,0,0.05c-0.16,11.11,8.71,20.24,19.82,20.4 c11.11,0.16,20.24-8.71,20.4-19.82c0-0.02,0-0.03,0-0.05L166.18,225.43z"></path> </g> </g> </g> </g> </g> </g> <g> <g> <g> <g> <g> <g> <circle class="st6" cx="186.29" cy="225.77" r="14.12"></circle> </g> </g> </g> </g> </g> </g> <g> <g> <g> <g> <g> <g> <path class="st10" d="M186.49,211.65c-7.8-0.11-14.21,6.12-14.32,13.92l28.24,0.41 C200.52,218.18,194.29,211.77,186.49,211.65z"></path> </g> </g> </g> </g> </g> </g> <g> <g> <g> <g> <g> <g> <circle class="st1" cx="186.29" cy="225.77" r="8.6"></circle> </g> </g> </g> </g> </g> </g> </g> <g> <g> <path class="st11" d="M214.9,217.7c-0.11,0.06-10.59-1.62-10.59-1.62l0,0c-1.15,1.5-2.9,2.41-4.78,2.5 c-4.52,0.22-8.95,0.42-12.78,0.59c-3.57,0.16-6.34,3.18-6.19,6.76l0,0.01c0.14,3.38,2.85,6.08,6.23,6.21l22.28,0.88 c3.66,0.14,8.53-2.08,10.82-4.95l0,0L214.9,217.7z"></path> </g> </g> <g> <g> <path class="st0" d="M160.17,208.8c0,0-0.96-19.6,17.46-23.69v-2.51h64.54v5.99c0,0-9.47,11.41-6.38,20.88 c3.09,9.47,4.06,10.44,4.06,10.44h36.73c0,0,4.45-5.61,4.64-13.92c0.19-8.31-3.26-22.53-5.84-31.61 c-2.34-8.26-3.83-15.17-3.83-15.17l11.02-3.67c0,0,20.39,26.66,21.22,28.16c0.83,1.5,3.66,5,3,12.66 c-0.67,7.66-18.99,31.32-23.82,33.98c-4.83,2.67-9.16,2.83-13.49,3.5c-3.76,0.58-31.57,0.2-38.84,0.08 c-2.53-0.04-5.02-0.68-7.18-1.99c-2.17-1.32-3.81-3.5-5.62-7.09l-3.83-7.5L160.17,208.8z"></path> </g> </g> <g> <g> <path class="st11" d="M165.11,207.43l-8.13,12.73c-1.04,1.63,0.64,3.68,2.42,2.91c0.86-0.37,1.79-0.96,2.73-1.85 c3.72-3.54,10.34-12.85,10.34-12.85L165.11,207.43z"></path> </g> </g> <g> <g> <g> <path class="st1" d="M223.4,209.73c0,0,0.01-0.06,0.05-0.19c0.04-0.13,0.09-0.31,0.16-0.53c0.14-0.47,0.31-1.18,0.43-2.1 c0.21-1.83,0.11-4.63-1.26-7.68c-0.67-1.52-1.66-3.08-2.99-4.5c-1.34-1.42-3-2.73-4.94-3.77c-1.93-1.05-4.11-1.87-6.45-2.4 c-2.34-0.52-4.82-0.76-7.36-0.76c-2.54,0-5.02,0.23-7.4,0.54c-2.38,0.32-4.67,0.72-6.82,1.21c-4.3,0.97-8.05,2.4-10.95,4.05 c-2.91,1.64-4.97,3.43-6.26,4.77c-0.65,0.67-1.11,1.23-1.43,1.61c-0.15,0.18-0.26,0.33-0.35,0.44 c-0.08,0.1-0.12,0.15-0.13,0.14c0,0,0.55-0.89,1.83-2.26c1.27-1.37,3.33-3.19,6.24-4.86c2.9-1.68,6.66-3.14,10.98-4.12 c2.16-0.5,4.45-0.9,6.84-1.22c2.39-0.32,4.88-0.55,7.44-0.55c2.56,0,5.06,0.24,7.42,0.77c2.36,0.53,4.56,1.37,6.5,2.44 c1.95,1.06,3.63,2.39,4.98,3.83c1.35,1.45,2.34,3.03,3.01,4.58c1.36,3.1,1.43,5.93,1.19,7.77c-0.14,0.93-0.32,1.64-0.48,2.1 c-0.08,0.22-0.14,0.4-0.19,0.53C223.43,209.67,223.41,209.73,223.4,209.73z"></path> </g> </g> </g> <g> <g> <g> <path class="st2" d="M219.68,205.32c-0.03-0.01,0.11-0.31,0.24-0.87c0.15-0.56,0.22-1.41,0.07-2.44 c-0.14-1.03-0.54-2.22-1.2-3.42c-0.32-0.6-0.72-1.21-1.19-1.79c-0.46-0.59-1-1.15-1.6-1.66c-1.21-1.02-2.57-1.74-3.84-2.25 c-1.28-0.5-2.49-0.79-3.52-0.96c-1.03-0.17-1.87-0.24-2.46-0.28c-0.58-0.04-0.91-0.05-0.91-0.07c0-0.01,0.08-0.02,0.24-0.02 c0.15,0,0.38-0.02,0.68-0.01c0.59,0,1.44,0.05,2.48,0.2c1.04,0.15,2.27,0.43,3.58,0.92c1.3,0.51,2.68,1.23,3.92,2.27 c0.62,0.52,1.17,1.09,1.63,1.7c0.47,0.6,0.87,1.21,1.2,1.83c0.66,1.23,1.05,2.45,1.17,3.51c0.12,1.05,0.03,1.92-0.16,2.49 c-0.06,0.29-0.18,0.49-0.23,0.64C219.73,205.26,219.69,205.33,219.68,205.32z"></path> </g> </g> </g> <g class="st7"> <g> <g> <path d="M207.04,188.15c3.61,0.69,6.76,1.98,9.72,3.96c2.96,1.97,5.22,4.77,6.51,8.09c1.29,3.32,1.09,7.71-0.26,10.45 l4.56,0.38c1.54-5.12-0.14-11.4-3.83-15.41C219.42,190.91,213.47,188.15,207.04,188.15"></path> </g> </g> </g> <g> <g> <path class="st11" d="M201.23,182.6h-31.18c-4.74,0-8.58-3.84-8.58-8.58v-17.33c0-4.74,3.84-8.58,8.58-8.58h31.18 c4.74,0,8.58,3.84,8.58,8.58v17.33C209.81,178.76,205.97,182.6,201.23,182.6z"></path> </g> </g> <g> <g> <g> <ellipse class="st1" cx="185.54" cy="155.8" rx="24.27" ry="0.13"></ellipse> </g> </g> </g> <g> <g> <g> <path class="st1" d="M242.14,184.88c0,0.07-14.51,0.13-32.39,0.13c-17.89,0-32.4-0.06-32.4-0.13c0-0.07,14.5-0.13,32.4-0.13 C227.64,184.75,242.14,184.81,242.14,184.88z"></path> </g> </g> </g> <g> <g> <path class="st11" d="M242.17,182.6c0,0,1.06-1.27,1.17-2.89c0.1-1.62-0.64-3.65-2.38-3.65h-22.29 c-3.61,0-6.54,2.93-6.54,6.54l0,0H242.17z"></path> </g> </g> <g> <g> <path class="st0" d="M271.56,159.2l-3.88-8.08c-1.06-2.3-0.21-5.03,1.96-6.32l11.59-6.91c0.61-0.36,1.3-0.55,2-0.55h2.5 l1,16.34l-3.86,1.48l2.45,3.98L271.56,159.2z"></path> </g> </g> <g> <g> <path class="st4" d="M285.78,137.93c0,0,3.97,0.91,4.46,7.02c0.5,6.11-3.5,8.02-3.5,8.02L285.78,137.93z"></path> </g> </g> <g> <g> <path class="st1" d="M272.91,147.96c0,0-8.02,3.8-8.99,4.42c-0.68,0.43-1.26,1.19-0.73,2.52c0.91,2.27,4.66,0.13,4.66,0.13 l7.46-3.73c0,0,2.87-1.35,1.81-3.05C275.93,146.36,272.91,147.96,272.91,147.96z"></path> </g> </g> <g> <g> <path class="st8" d="M261.57,146.57c0,0,7.53,1.29,8.17,1.46c0.64,0.17,3.15,1.36,3.28,2.13c0.13,0.77,0,3.02,0,3.02 s-0.45,0.37-0.74-0.37c-0.28-0.74-0.24-2.2-0.24-2.2l-1.41-0.54l0.77,1.36l0.13,3.2c0,0-0.98-0.09-1.17-0.85 c-0.19-0.76-0.19-1.62-0.19-1.62l-1.03-0.87l0.77,1.04l0.26,2.3c0,0-0.75,0.24-0.98-0.27c-0.24-0.51-0.25-2.03-0.25-2.03 l-2.89-1.01l-1.92,1.07l-3.01-1.65L261.57,146.57z"></path> </g> </g> <g> <g> <ellipse class="st1" cx="270.16" cy="136.08" rx="3.13" ry="5.52"></ellipse> </g> </g> <g> <g> <path class="st1" d="M270.68,139.88l1.72,5.96c0.77-0.39,0.93-1.15,0.8-1.76c-0.43-2.04-0.67-3.49-1.15-5.28 C271.99,138.62,270.68,139.88,270.68,139.88"></path> </g> </g> <g class="st7"> <g> <path d="M236.64,212.01c-0.17-0.49-0.34-0.99-0.51-1.51c-0.15-0.48-0.33-0.98-0.46-1.46c-0.24-0.86-0.37-1.74-0.43-2.25 c-2.9,11.82,1.53,20.14,9.14,20.72c11.11,0.85,24.67,1.48,30.15,0.04c9.99-2.62,13.66-10.95,14.53-12.33 c0.87-1.37,8.82-15.9,3.95-29.89c-4.87-13.99-13.36-28.84-13.36-28.84l-8.09,2.7c0,0,1.48,6.91,3.83,15.17 c2.58,9.09,6.03,23.3,5.84,31.61c-0.19,8.31-4.64,13.92-4.64,13.92h-36.73C239.85,219.91,239.07,219.12,236.64,212.01"></path> </g> </g> <g> <g> <path class="st0" d="M158.7,205.72l0.26-2.8l67.04,7.72c3.78,0.44,6.41,3.98,5.75,7.73l-0.3,1.7l-69.39-10.08 C159.99,209.69,158.51,207.81,158.7,205.72z"></path> </g> </g> <g class="st5"> <g> <path d="M158.7,205.72l0.26-2.8l67.04,7.72c3.78,0.44,6.41,3.98,5.75,7.73l-0.3,1.7l-69.39-10.08 C159.99,209.69,158.51,207.81,158.7,205.72z"></path> </g> </g> <g class="st12"> <g> <g> <path d="M289.06,224.48c0,0,14.76-16.23,17.8-28.99c1.02-0.01,3.41,0.09,4.57,0.34C311.43,195.82,302.7,219.55,289.06,224.48 z"></path> </g> </g> </g> <g> <g> <g> <path class="st1" d="M306.65,189.76c0.01,0,0.04,0.14,0.08,0.41c0.04,0.27,0.12,0.67,0.17,1.19c0.1,1.04,0.16,2.56-0.11,4.41 c-0.27,1.85-0.9,4-1.95,6.24c-1.03,2.25-2.44,4.56-3.91,6.98c-2.96,4.86-6.25,8.84-8.64,11.68c-1.2,1.42-2.19,2.55-2.88,3.33 c-0.33,0.37-0.6,0.67-0.8,0.89c-0.18,0.2-0.29,0.31-0.29,0.3c-0.01-0.01,0.08-0.12,0.25-0.33c0.19-0.23,0.44-0.54,0.76-0.92 c0.68-0.82,1.64-1.97,2.82-3.38c2.35-2.87,5.61-6.86,8.56-11.7c1.47-2.42,2.88-4.73,3.91-6.95c1.05-2.21,1.7-4.34,1.98-6.17 c0.29-1.83,0.26-3.34,0.19-4.37c-0.03-0.52-0.1-0.92-0.12-1.19C306.65,189.91,306.64,189.76,306.65,189.76z"></path> </g> </g> </g> <g> <g> <g> <ellipse transform="matrix(0.7145 0.6996 -0.6996 0.7145 235.0035 -131.6776)" class="st1" cx="278.86" cy="222.13" rx="3.18" ry="0.13"></ellipse> </g> </g> </g> <g> <g> <g> <path class="st1" d="M237.33,223.86c-0.06-0.03,0.34-1.02,1.08-2.1c0.73-1.09,1.5-1.83,1.55-1.78 c0.06,0.05-0.62,0.86-1.34,1.93C237.9,222.97,237.4,223.89,237.33,223.86z"></path> </g> </g> </g> <g> <g> <g> <path class="st1" d="M208.98,233.23c-0.06-0.05,1.06-0.76,2.01-2.56c0.48-0.89,0.87-2.04,0.99-3.37 c0.12-1.32-0.07-2.81-0.72-4.2c-0.67-1.38-1.71-2.46-2.81-3.2c-1.1-0.74-2.25-1.16-3.24-1.35c-2-0.39-3.25,0.03-3.25-0.04 c0-0.01,0.07-0.03,0.22-0.07c0.15-0.03,0.36-0.1,0.65-0.13c0.57-0.09,1.41-0.11,2.42,0.06c1.01,0.17,2.19,0.58,3.34,1.33 c1.14,0.74,2.22,1.86,2.91,3.29c0.67,1.44,0.86,2.98,0.72,4.33c-0.13,1.36-0.56,2.54-1.06,3.43c-0.5,0.9-1.05,1.53-1.48,1.92 c-0.2,0.21-0.39,0.33-0.5,0.42C209.05,233.19,208.98,233.24,208.98,233.23z"></path> </g> </g> </g> <g> <g> <g> <ellipse transform="matrix(0.0476 0.9989 -0.9989 0.0476 401.0812 30.8152)" class="st1" cx="184.38" cy="225.72" rx="2.37" ry="0.13"></ellipse> </g> </g> </g> <g> <g> <g> <ellipse transform="matrix(0.1267 0.9919 -0.9919 0.1267 386.3062 12.6483)" class="st1" cx="185.97" cy="225.72" rx="2.39" ry="0.13"></ellipse> </g> </g> </g> <g> <g> <g> <ellipse class="st1" cx="195.72" cy="182.6" rx="18.21" ry="0.13"></ellipse> </g> </g> </g> <g> <g> <g> <ellipse class="st1" cx="187.53" cy="161.72" rx="0.13" ry="20.85"></ellipse> </g> </g> </g> <g> <g> <g> <ellipse transform="matrix(-0.0435 0.9991 -0.9991 -0.0435 352.9747 -14.5287)" class="st1" cx="183.44" cy="161.7" rx="20.85" ry="0.13"></ellipse> </g> </g> </g> </g> <g> <g> <g> <g> <path class="st11" d="M171.24,239.43c-0.01,0.01-0.08-0.07-0.22-0.22c-0.13-0.15-0.34-0.36-0.57-0.66 c-0.49-0.59-1.14-1.48-1.82-2.67c-1.36-2.35-2.71-6.01-2.69-10.21c0.02-4.2,1.4-7.86,2.78-10.19 c0.69-1.18,1.35-2.07,1.84-2.65c0.24-0.3,0.45-0.51,0.58-0.66c0.14-0.15,0.21-0.22,0.22-0.21c0.01,0.01-0.06,0.09-0.18,0.25 c-0.12,0.16-0.32,0.38-0.54,0.69c-0.46,0.6-1.1,1.5-1.76,2.68c-1.33,2.34-2.66,5.96-2.68,10.1 c-0.02,4.14,1.29,7.77,2.59,10.12c0.65,1.19,1.28,2.09,1.74,2.69c0.22,0.31,0.42,0.53,0.54,0.69 C171.19,239.34,171.25,239.42,171.24,239.43z"></path> </g> </g> </g> </g> </g> <g> <g> <g> <g> <g> <g> <g> <g> <path class="st11" d="M241.72,201.95l-0.15,0.29l-2.96,5.57l-4.15,4l8.3,11.05l6.91-1.15c0,0-0.78-1.58-4.25-1.88 l-1.33-6.6l4.88-7.56"></path> </g> </g> </g> <g> <g> <g> <polygon class="st10" points="234.45,211.81 242.75,222.86 249.67,221.71 248.71,220.8 243.04,221.42 235.34,210.96 "></polygon> </g> </g> </g> </g> <g> <g> <g> <g> <path class="st1" d="M244.87,216.79c-0.04,0.08-0.48-0.08-1.01,0.02c-0.54,0.09-0.89,0.39-0.95,0.33 c-0.07-0.04,0.25-0.52,0.9-0.63C244.46,216.39,244.92,216.73,244.87,216.79z"></path> </g> </g> </g> </g> <g> <g> <g> <g> <path class="st1" d="M244.48,215.16c-0.06,0.06-0.44-0.3-1.01-0.31c-0.57-0.02-0.97,0.31-1.02,0.25 c-0.03-0.03,0.03-0.16,0.21-0.29c0.17-0.14,0.47-0.27,0.83-0.26c0.35,0.01,0.64,0.16,0.81,0.31 C244.46,215.01,244.51,215.14,244.48,215.16z"></path> </g> </g> </g> </g> <g> <g> <g> <g> <path class="st1" d="M244.18,213.04c-0.07,0.05-0.37-0.31-0.88-0.4c-0.51-0.09-0.92,0.14-0.96,0.07 c-0.02-0.03,0.05-0.14,0.23-0.25c0.18-0.1,0.47-0.18,0.79-0.13c0.32,0.06,0.57,0.23,0.7,0.39 C244.18,212.89,244.21,213.02,244.18,213.04z"></path> </g> </g> </g> </g> <g> <g> <g> <g> <path class="st1" d="M245.76,211.09c-0.08,0.04-0.34-0.32-0.81-0.52c-0.47-0.22-0.91-0.18-0.93-0.26 c-0.04-0.08,0.48-0.28,1.06-0.02C245.65,210.55,245.84,211.07,245.76,211.09z"></path> </g> </g> </g> </g> <g> <g> <g> <g> <path class="st1" d="M246.42,209.52c-0.03,0.03-0.31-0.21-0.72-0.62c-0.24-0.24-0.48-0.48-0.72-0.73 c-0.13-0.15-0.29-0.26-0.41-0.51c-0.06-0.12-0.08-0.28-0.03-0.43c0.05-0.16,0.23-0.28,0.38-0.29 c0.31-0.01,0.5,0.12,0.7,0.23c0.19,0.12,0.36,0.26,0.5,0.41c0.28,0.3,0.44,0.64,0.53,0.94c0.17,0.6,0.03,0.98,0,0.97 c-0.06,0,0-0.37-0.21-0.9c-0.1-0.26-0.27-0.55-0.53-0.81c-0.13-0.13-0.28-0.25-0.45-0.35c-0.16-0.09-0.38-0.19-0.52-0.18 c-0.07,0.01-0.1,0.03-0.12,0.08c-0.02,0.06-0.02,0.13,0.01,0.2c0.06,0.14,0.22,0.29,0.35,0.44 c0.23,0.26,0.45,0.52,0.67,0.78C246.23,209.2,246.45,209.49,246.42,209.52z"></path> </g> </g> </g> </g> <g> <g> <g> <g> <path class="st1" d="M246.7,209.69c-0.03,0-0.07-0.36,0.24-0.84c0.3-0.45,1.03-1.01,1.99-0.71 c0.07,0.04,0.14,0.13,0.15,0.23c0.01,0.1-0.02,0.17-0.05,0.23c-0.06,0.12-0.15,0.19-0.21,0.26 c-0.14,0.14-0.29,0.26-0.44,0.36c-0.3,0.2-0.61,0.33-0.87,0.41c-0.53,0.15-0.87,0.1-0.87,0.06c0-0.05,0.32-0.08,0.8-0.27 c0.24-0.09,0.51-0.23,0.77-0.43c0.13-0.1,0.27-0.21,0.39-0.34c0.06-0.07,0.13-0.13,0.15-0.19c0.02-0.07,0.02-0.05,0-0.06 c-0.03-0.02-0.12-0.04-0.21-0.04c-0.09-0.01-0.18-0.01-0.26,0c-0.17,0.02-0.34,0.06-0.49,0.12 c-0.3,0.12-0.53,0.31-0.68,0.5C246.8,209.36,246.75,209.7,246.7,209.69z"></path> </g> </g> </g> </g> <g> <g> <g> <circle class="st10" cx="239.11" cy="210.82" r="0.83"></circle> </g> </g> </g> </g> </g> <g> <g> <g> <g> <g> <path class="st11" d="M266.91,207.26l2.22,14.41l17.94-2.67c-0.36-1.7-10.15-3.76-10.15-3.76l-1.04-9.29L266.91,207.26z"></path> </g> </g> </g> <g> <g> <g> <g> <path class="st10" d="M271.25,215.29c-0.33,0.15-0.51,0.57-0.38,0.91c0.13,0.34,0.56,0.53,0.9,0.39 c0.34-0.14,0.57-0.65,0.4-0.97c-0.17-0.32-0.69-0.52-0.98-0.3"></path> </g> </g> </g> </g> <g> <g> <g> <path class="st10" d="M269.13,221.67l-0.17-1.46l17.26-2.01c0,0,0.85,0.23,0.84,0.8L269.13,221.67z"></path> </g> </g> </g> <g> <g> <g> <g> <path class="st1" d="M277.19,215.11c0.01,0.09-0.42,0.19-0.81,0.54c-0.4,0.34-0.56,0.75-0.65,0.73 c-0.08-0.01-0.03-0.55,0.45-0.96C276.65,215,277.2,215.02,277.19,215.11z"></path> </g> </g> </g> </g> <g> <g> <g> <g> <path class="st1" d="M279.19,215.61c0.03,0.08-0.32,0.29-0.57,0.7c-0.25,0.41-0.27,0.82-0.36,0.83 c-0.08,0.03-0.22-0.48,0.09-0.99C278.66,215.64,279.17,215.52,279.19,215.61z"></path> </g> </g> </g> </g> <g> <g> <g> <g> <path class="st1" d="M280.59,217.7c-0.08,0.03-0.26-0.39-0.11-0.9c0.15-0.51,0.53-0.76,0.58-0.7 c0.06,0.06-0.17,0.36-0.29,0.78C280.65,217.3,280.68,217.68,280.59,217.7z"></path> </g> </g> </g> </g> <g> <g> <g> <g> <path class="st1" d="M276.72,213.02c-0.02,0.09-0.44,0.02-0.93,0.13c-0.49,0.1-0.85,0.32-0.91,0.25 c-0.06-0.06,0.27-0.44,0.85-0.55C276.3,212.72,276.75,212.94,276.72,213.02z"></path> </g> </g> </g> </g> <g> <g> <g> <g> <path class="st1" d="M275.97,210.95c0.01,0.04-0.33,0.14-0.9,0.13c-0.28-0.01-0.62-0.05-0.98-0.15 c-0.18-0.05-0.37-0.12-0.56-0.2c-0.09-0.04-0.2-0.08-0.3-0.17c-0.11-0.08-0.2-0.3-0.11-0.46 c0.07-0.15,0.23-0.24,0.35-0.26c0.13-0.02,0.24-0.01,0.34,0c0.21,0.02,0.4,0.06,0.59,0.11c0.37,0.1,0.67,0.26,0.91,0.42 c0.47,0.32,0.66,0.63,0.64,0.65c-0.04,0.03-0.28-0.21-0.75-0.46c-0.23-0.13-0.53-0.25-0.87-0.33 c-0.17-0.04-0.35-0.07-0.54-0.08c-0.2-0.02-0.36,0-0.4,0.09c-0.01,0.03-0.01,0.05,0.03,0.1c0.05,0.05,0.13,0.08,0.22,0.12 c0.17,0.08,0.35,0.15,0.51,0.2c0.34,0.11,0.65,0.17,0.92,0.2C275.63,210.93,275.97,210.9,275.97,210.95z"></path> </g> </g> </g> </g> <g> <g> <g> <g> <path class="st1" d="M275.88,211.1c-0.03,0.02-0.25-0.27-0.37-0.83c-0.06-0.28-0.08-0.62-0.02-1 c0.03-0.19,0.08-0.38,0.15-0.58c0.08-0.19,0.17-0.45,0.51-0.54c0.18-0.03,0.34,0.08,0.41,0.19 c0.08,0.11,0.1,0.21,0.14,0.32c0.06,0.2,0.09,0.41,0.09,0.6c0,0.39-0.11,0.73-0.25,0.99c-0.28,0.52-0.63,0.68-0.64,0.65 c-0.04-0.04,0.24-0.25,0.45-0.74c0.1-0.24,0.17-0.55,0.16-0.89c-0.01-0.17-0.04-0.34-0.09-0.52 c-0.06-0.19-0.15-0.33-0.22-0.3c-0.09,0.01-0.22,0.18-0.27,0.34c-0.07,0.17-0.12,0.35-0.15,0.52 c-0.06,0.34-0.07,0.66-0.04,0.92C275.78,210.76,275.92,211.07,275.88,211.1z"></path> </g> </g> </g> </g> </g> </g> <g> <g> <polyline class="st1" points="252.79,173.43 237.41,206.95 247.57,213.05 268.84,172.71 "></polyline> </g> </g> <g> <g> <path class="st1" d="M278.16,213.81l-11.04,1.77l-6.61-39.42l-32.64,2.37c-0.86,0.05-1.74-0.02-2.57-0.25 c-9.17-2.51-7.93-14.2-7.04-16.07l45.17-1.3c4.9-0.14,9.12,3.43,9.8,8.28L278.16,213.81z"></path> </g> </g> <g> <g> <g> <g> <g> <g> <g> <g> <g> <g> <path class="st0" d="M217.81,164.06l0.16-16.67c0,0-2.15-10.84-2.79-15.1c-0.99-6.61-2.34-9.75,8.49-14.46l2.37-0.91 l3.67,0.05c4.37,0.33,8.98,4.28,9.08,6.9l4.22,37.56L217.81,164.06z"></path> </g> </g> </g> </g> </g> </g> </g> </g> </g> </g> <g> <g> <g> <g> <path class="st0" d="M218.49,121.71c0,0-3.06,6.58-2.45,12.58l11.4,10.94c2.56,2.85,5.75,4.05,9.84,4.3l23.59,2.58 l0.65-6.17l-22.44-6.36c-0.89-0.16-1.34-1.1-2.02-1.69L218.49,121.71"></path> </g> </g> </g> </g> <g> <g> <g> <path class="st1" d="M216.65,123.61c0,0,0.13-0.14,0.45-0.3c0.32-0.16,0.84-0.32,1.52-0.43c0.68-0.1,1.55-0.17,2.55,0.01 c0.25,0.06,0.51,0.12,0.75,0.26c0.24,0.14,0.46,0.3,0.69,0.47c0.46,0.35,0.91,0.76,1.38,1.2c0.95,0.88,1.84,2,2.89,3.13 c1.04,1.14,2.2,2.35,3.44,3.62c1.25,1.27,2.59,2.61,4.03,3.99c0.72,0.69,1.47,1.38,2.26,2.07c0.4,0.33,0.79,0.71,1.17,1.07 c0.39,0.35,0.82,0.68,1.32,0.78l0.01,0l0.01,0c6.67,1.89,14.32,4.05,22.44,6.34l0.1,0.03l-0.01,0.11 c-0.05,0.44-0.1,0.91-0.15,1.38c-0.17,1.64-0.35,3.26-0.51,4.79l-0.01,0.13l-0.13-0.01c-3.43-0.38-6.77-0.74-9.98-1.1 c-1.61-0.18-3.18-0.35-4.72-0.52c-1.54-0.16-3.05-0.31-4.52-0.46c-1.47-0.16-2.9-0.33-4.28-0.53 c-1.38-0.2-2.73-0.46-3.96-0.92c-1.24-0.45-2.34-1.1-3.34-1.79c-1-0.69-1.91-1.42-2.76-2.13c-3.37-2.88-5.84-5.45-7.56-7.2 c-0.85-0.88-1.5-1.58-1.94-2.05c-0.21-0.23-0.38-0.41-0.49-0.54c-0.11-0.12-0.16-0.19-0.16-0.19s0.06,0.06,0.18,0.17 c0.12,0.13,0.29,0.3,0.51,0.52c0.46,0.47,1.12,1.14,1.97,2.02c1.74,1.73,4.23,4.28,7.61,7.13c0.85,0.7,1.76,1.42,2.75,2.11 c0.99,0.68,2.08,1.32,3.3,1.76c1.22,0.45,2.55,0.7,3.92,0.9c1.38,0.2,2.81,0.36,4.27,0.52c1.47,0.15,2.98,0.29,4.52,0.45 c1.54,0.17,3.12,0.34,4.72,0.51c3.21,0.35,6.55,0.71,9.98,1.09l-0.14,0.11c0.16-1.53,0.33-3.15,0.51-4.79 c0.05-0.47,0.1-0.94,0.15-1.38l0.09,0.14c-8.11-2.3-15.76-4.48-22.43-6.37l0.01,0c-0.58-0.11-1.04-0.47-1.44-0.83 c-0.4-0.38-0.76-0.73-1.17-1.07c-0.79-0.69-1.53-1.39-2.26-2.08c-1.44-1.38-2.78-2.73-4.02-4.01 c-1.24-1.28-2.39-2.5-3.43-3.64c-1.05-1.14-1.93-2.26-2.86-3.14c-0.46-0.45-0.91-0.85-1.36-1.21 c-0.23-0.17-0.45-0.34-0.68-0.47c-0.22-0.13-0.48-0.19-0.71-0.25c-0.97-0.19-1.84-0.12-2.52-0.04 c-0.68,0.09-1.19,0.24-1.52,0.39C216.79,123.49,216.66,123.62,216.65,123.61z"></path> </g> </g> </g> </g> <g> <g> <g> <g> <g> <g> <g> <g> <g> <g> <g> <g> <g> <g> <g> <g> <g> <g> <g> <path class="st8" d="M222.54,102.47l1.15,16.22c0.19,2.65,2.39,4.7,5.05,4.7l0,0c2.92,0,5.24-2.47,5.05-5.39 c-0.1-1.54-0.19-2.81-0.19-2.81s3.93-0.61,3.98-4.54c0.03-2.27-0.36-7.42-0.7-11.36 c-0.23-2.67-2.46-4.71-5.13-4.71h-2.37C225.27,94.82,222.18,98.39,222.54,102.47z"></path> </g> </g> </g> </g> </g> </g> </g> </g> </g> </g> </g> <g> <g> <g> <g> <g> <g> <g> <g> <g> <g> <g> <path class="st13" d="M233.59,115.14c0,0-2.48,0.2-5.12-1.46c0,0,1.21,2.83,5.13,2.47L233.59,115.14z"></path> </g> </g> </g> </g> </g> </g> </g> </g> </g> </g> </g> </g> </g> </g> <g> <g> <g> <g> <g> <g> <g> <g> <g> <g> <g> <g> <g> <g> <g> <g> <g> <path class="st1" d="M235.98,104.34c0.01,0.3-0.23,0.55-0.54,0.57c-0.31,0.02-0.57-0.21-0.58-0.51 c-0.01-0.3,0.23-0.55,0.54-0.57C235.71,103.82,235.97,104.05,235.98,104.34z"></path> </g> </g> </g> </g> </g> </g> </g> </g> </g> </g> </g> <g> <g> <g> <g> <g> <g> <g> <g> <g> <g> <g> <g> <path class="st1" d="M236.18,103.24c-0.07,0.07-0.49-0.24-1.1-0.24c-0.6-0.01-1.05,0.3-1.11,0.23 c-0.03-0.03,0.04-0.16,0.23-0.31c0.19-0.14,0.51-0.28,0.89-0.27c0.38,0,0.69,0.14,0.87,0.28 C236.15,103.07,236.22,103.2,236.18,103.24z"></path> </g> </g> </g> </g> </g> </g> </g> </g> </g> </g> </g> </g> </g> <g> <g> <g> <g> <g> <g> <g> <g> <g> <g> <g> <g> <path class="st1" d="M230.31,104.34c0.01,0.3-0.23,0.55-0.54,0.57c-0.31,0.02-0.57-0.21-0.58-0.51 c-0.01-0.3,0.23-0.55,0.54-0.57C230.04,103.82,230.3,104.05,230.31,104.34z"></path> </g> </g> </g> </g> </g> </g> </g> </g> </g> </g> </g> <g> <g> <g> <g> <g> <g> <g> <g> <g> <g> <g> <g> <path class="st1" d="M230.25,103.35c-0.07,0.07-0.5-0.24-1.1-0.24c-0.6-0.01-1.05,0.3-1.11,0.23 c-0.03-0.03,0.04-0.16,0.23-0.31c0.19-0.14,0.51-0.28,0.89-0.27c0.38,0,0.69,0.14,0.87,0.28 C230.22,103.18,230.28,103.32,230.25,103.35z"></path> </g> </g> </g> </g> </g> </g> </g> </g> </g> </g> </g> </g> </g> <g> <g> <g> <g> <g> <g> <g> <g> <g> <g> <g> <g> <path class="st1" d="M232.44,107.82c0-0.03,0.37-0.1,0.98-0.18c0.15-0.02,0.3-0.05,0.33-0.15 c0.04-0.11-0.03-0.28-0.1-0.46c-0.15-0.37-0.3-0.76-0.46-1.17c-0.63-1.67-1.09-3.04-1.02-3.07 c0.07-0.02,0.64,1.31,1.27,2.98c0.15,0.41,0.3,0.8,0.44,1.18c0.06,0.18,0.16,0.37,0.08,0.6 c-0.04,0.12-0.15,0.2-0.25,0.23c-0.1,0.03-0.19,0.03-0.26,0.04C232.82,107.86,232.44,107.86,232.44,107.82 z"></path> </g> </g> </g> </g> </g> </g> </g> </g> </g> </g> </g> </g> <g> <g> <g> <g> <g> <g> <g> <g> <g> <g> <g> <g> <path class="st1" d="M230.66,108.24c0.1-0.01,0.1,0.65,0.66,1.11c0.56,0.47,1.26,0.39,1.26,0.48 c0.01,0.04-0.16,0.13-0.45,0.14c-0.29,0.01-0.71-0.08-1.05-0.37c-0.34-0.29-0.49-0.67-0.51-0.93 C230.55,108.4,230.62,108.24,230.66,108.24z"></path> </g> </g> </g> </g> </g> </g> </g> </g> </g> </g> </g> </g> </g> </g> </g> <g> <g> <g> <g> <g> <g> <g> <g> <g> <g> <g> <path class="st1" d="M230.41,100.98c-0.06,0.16-0.66,0.09-1.37,0.17c-0.71,0.07-1.28,0.28-1.37,0.13 c-0.04-0.07,0.06-0.22,0.29-0.38c0.23-0.16,0.59-0.31,1.02-0.36c0.43-0.05,0.81,0.02,1.07,0.13 C230.3,100.78,230.43,100.91,230.41,100.98z"></path> </g> </g> </g> </g> </g> </g> </g> </g> </g> </g> </g> <g> <g> <g> <g> <g> <g> <g> <g> <g> <g> <g> <path class="st1" d="M235.96,101.49c-0.11,0.14-0.52-0.01-1.02-0.01c-0.5-0.02-0.92,0.09-1.02-0.05 c-0.04-0.07,0.02-0.21,0.21-0.34c0.18-0.13,0.49-0.24,0.83-0.22c0.34,0.01,0.64,0.14,0.82,0.28 C235.95,101.28,236.01,101.42,235.96,101.49z"></path> </g> </g> </g> </g> </g> </g> </g> </g> </g> </g> </g> </g> </g> <g> <g> <g> <g> <g> <g> <g> <g> <g> <g> <g> <g> <path class="st8" d="M223.86,105.41c-0.07-0.03-2.7-0.8-2.61,1.89c0.09,2.68,2.76,2.05,2.77,1.97 C224.02,109.19,223.86,105.41,223.86,105.41z"></path> </g> </g> </g> </g> </g> </g> </g> </g> </g> </g> </g> <g> <g> <g> <g> <g> <g> <g> <g> <g> <g> <g> <g> <path class="st13" d="M223.16,108.28c-0.01-0.01-0.05,0.03-0.12,0.07c-0.08,0.04-0.21,0.07-0.35,0.02 c-0.29-0.09-0.54-0.54-0.57-1.02c-0.01-0.24,0.03-0.48,0.11-0.67c0.08-0.2,0.2-0.34,0.34-0.37 c0.14-0.04,0.24,0.04,0.28,0.12c0.04,0.07,0.02,0.13,0.04,0.13c0.01,0.01,0.06-0.05,0.03-0.16 c-0.01-0.05-0.05-0.12-0.11-0.16c-0.07-0.05-0.16-0.07-0.26-0.06c-0.21,0.02-0.39,0.22-0.48,0.43 c-0.1,0.22-0.15,0.48-0.14,0.75c0.03,0.54,0.33,1.04,0.72,1.14c0.19,0.04,0.35-0.02,0.43-0.08 C223.16,108.34,223.17,108.28,223.16,108.28z"></path> </g> </g> </g> </g> </g> </g> </g> </g> </g> </g> </g> </g> </g> </g> </g> <g> <g> <g> <g> <g> <g> <g> <path class="st1" d="M222.37,105.32c0.41-0.1,1.12,0.28,1.29,0.66c0.17,0.38,0.21,0.82,0.39,1.2s0.57,0.73,0.98,0.63 c0.28-0.07,0.48-0.33,0.56-0.61c0.07-0.28,0.04-0.58,0.01-0.87c-0.16-1.25-0.42-2.5-0.47-3.76 c-0.05-1.26,0.13-2.57,0.79-3.65s1.88-1.87,3.14-1.77c0.83,0.07,1.6,0.5,2.43,0.62c0.98,0.14,2.02-0.21,2.73-0.91 c0.09-0.09,0.51-0.37,0.51-0.37c0-0.07-0.06-0.63-0.28-0.83c-1.64-1.52-4.61-1.95-6.78-1.4 c-2.17,0.55-4.21,2.08-5.14,4.12C221.57,100.43,221.85,103.26,222.37,105.32"></path> </g> </g> </g> </g> </g> </g> </g> </g> </g> <g> <g> <g> <g> <path class="st0" d="M236.9,98.69c0,0-10.3-3.31-14.76,5.6c0,0-0.67-2.23-0.67-3.43c0-0.8,0.48-5.55,5.37-7.05 C226.85,93.81,234.22,91,236.9,98.69z"></path> </g> </g> </g> </g> <g> <g> <g> <g> <path class="st1" d="M228.05,98.91c0.36,0.59,1.01,0.99,1.7,1.05c0.69,0.06,1.4-0.22,1.86-0.73c0.2,0.51,0.75,0.86,1.3,0.83 c0.55-0.03,1.05-0.43,1.2-0.96c0.3,0.29,0.61,0.59,1,0.73c0.39,0.14,0.89,0.09,1.14-0.24c0.26-0.33,0.19-0.84-0.07-1.18 c-0.26-0.34-0.65-0.54-1.04-0.7c-1.22-0.51-2.57-0.77-3.89-0.59c-1.31,0.18-2.59,0.82-3.41,1.86"></path> </g> </g> </g> </g> <g class="st7"> <g> <g> <g> <path d="M236.9,98.69c0,0-1.17-1.39-3.28-1.49c-3.04-0.13-8.73,1.57-11.48,7.09c0,0-0.67-2.23-0.67-3.43 c0-0.8,0.48-5.55,5.37-7.05C226.85,93.81,234.22,91,236.9,98.69z"></path> </g> </g> </g> </g> <g> <g> <g> <path class="st0" d="M222.57,103.25c1.53-2.34,3.63-4.27,6-5.75c2.37-1.48,6.28-2.94,8.98-3.66c0.81-0.22,1.65-0.4,2.48-0.26 c0.83,0.14,1.63,0.69,1.84,1.51c0.26,1.02-1.55,2.59-2.4,3.2c-0.85,0.62-2.58,1.52-2.58,1.52s0.02-1.89-3-2.28 C229.8,97.01,222.57,103.25,222.57,103.25z"></path> </g> </g> </g> </g> <g class="st12"> <g> <g> <path d="M218.95,136.72c1.06,2.56,2.13,5.73,3.67,8.04s3.6,4.35,6.16,5.43c3.21,1.34,7.02,1.56,10.21,0.18 c0.26-0.11,0.77-0.26,0.72-0.54c0,0-1.06-0.12-1.39-0.17c-6.46-1.09-7.16-1.89-10.26-4.33 C226.15,143.8,221.87,139.19,218.95,136.72"></path> </g> </g> </g> <g> <g> <g> <path class="st1" d="M239.49,155.39c0.01,0.01-0.07,0.23-0.27,0.6c-0.2,0.37-0.54,0.89-1.05,1.46c-1,1.14-2.79,2.38-5.01,3.06 c-2.22,0.68-4.33,0.81-5.83,0.87c-0.75,0.03-1.36,0.03-1.78,0.03c-0.42,0-0.65-0.01-0.65-0.03c0-0.02,0.23-0.04,0.65-0.07 c0.47-0.03,1.07-0.07,1.78-0.11c1.49-0.11,3.58-0.27,5.76-0.94c2.18-0.67,3.93-1.85,4.95-2.94 C239.08,156.24,239.44,155.36,239.49,155.39z"></path> </g> </g> </g> <g> <g> <g> <path class="st11" d="M267.32,216.76c0,0-0.02-0.05-0.04-0.15c-0.02-0.12-0.05-0.26-0.09-0.45c-0.08-0.42-0.18-1-0.32-1.74 c-0.27-1.53-0.65-3.72-1.12-6.42c-0.92-5.44-2.19-12.93-3.59-21.21c-0.62-3.75-1.22-7.33-1.77-10.6l0.13,0.1 c-5.73,0.42-10.63,0.78-14.12,1.03c-1.72,0.12-3.1,0.21-4.06,0.28c-0.46,0.03-0.82,0.05-1.08,0.06c-0.11,0-0.2,0.01-0.28,0.01 c-0.06,0-0.09,0-0.09,0c0,0,0.03-0.01,0.09-0.02c0.07-0.01,0.16-0.02,0.28-0.03c0.26-0.02,0.62-0.06,1.08-0.1 c0.96-0.08,2.33-0.2,4.05-0.34c3.49-0.28,8.38-0.67,14.11-1.13l0.11-0.01l0.02,0.11c0.55,3.27,1.15,6.85,1.78,10.6 c1.37,8.28,2.62,15.77,3.52,21.22c0.44,2.71,0.79,4.9,1.04,6.44c0.11,0.75,0.21,1.33,0.27,1.75c0.03,0.19,0.05,0.34,0.06,0.46 C267.32,216.71,267.32,216.76,267.32,216.76z"></path> </g> </g> </g> <g> <g> <g> <path class="st11" d="M263.83,172.64c0.05,0.06-0.81,0.8-1.79,1.79c-0.98,0.99-1.7,1.86-1.76,1.82 c-0.05-0.04,0.59-0.99,1.58-2C262.85,173.25,263.79,172.59,263.83,172.64z"></path> </g> </g> </g> </g> <g> <g> <g> <path class="st1" d="M233.68,118.35c0.01,0,0.03,0.05,0.06,0.16c0.04,0.11,0.07,0.27,0.09,0.48c0.05,0.42,0.02,1.06-0.24,1.79 c-0.27,0.72-0.78,1.53-1.62,2.13c-0.83,0.61-1.98,0.92-3.16,0.84c-1.18-0.08-2.26-0.52-3.06-1.15 c-0.81-0.62-1.37-1.37-1.74-2.03c-0.37-0.67-0.56-1.26-0.67-1.67c-0.05-0.21-0.08-0.37-0.1-0.48 c-0.02-0.11-0.02-0.17-0.01-0.17c0.06-0.02,0.18,0.94,0.93,2.23c0.38,0.64,0.94,1.35,1.73,1.93c0.78,0.59,1.81,1,2.94,1.08 c1.12,0.07,2.21-0.22,3-0.78c0.8-0.56,1.31-1.32,1.59-2c0.27-0.69,0.33-1.3,0.31-1.72 C233.71,118.58,233.65,118.36,233.68,118.35z"></path> </g> </g> </g> <g> <g> <path class="st14" d="M236.2,179.8"></path> </g> </g> <g> <g> <g> <path class="st1" d="M240.62,139.83c-0.02,0-0.05-0.18-0.11-0.51c-0.05-0.39-0.12-0.86-0.2-1.41c-0.16-1.25-0.37-2.87-0.6-4.65 c-0.22-1.82-0.4-3.47-0.51-4.66c-0.05-0.6-0.09-1.08-0.11-1.42c-0.02-0.34-0.02-0.52-0.01-0.52c0.02,0,0.05,0.18,0.1,0.51 c0.05,0.39,0.12,0.86,0.19,1.41c0.16,1.25,0.36,2.87,0.58,4.65c0.22,1.82,0.42,3.46,0.53,4.66c0.06,0.6,0.1,1.08,0.12,1.42 C240.63,139.64,240.63,139.83,240.62,139.83z"></path> </g> </g> </g> </g> </g> </svg> 