<?xml version="1.0" encoding="UTF-8"?> <!-- Generator: Adobe Illustrator 18.0.0, SVG Export Plug-In . SVG Version: 6.00 Build 0) --> <svg xmlns="http://www.w3.org/2000/svg" xmlns:xlink="http://www.w3.org/1999/xlink" version="1.1" id="Capa_1" x="0px" y="0px" viewBox="0 0 360.45 289.27" style="enable-background:new 0 0 360.45 289.27;" xml:space="preserve"> <style type="text/css"> .st0{fill:#ECD0A1;} .st1{fill:#D83040;} .st2{fill:#E8505B;} .st3{fill:#464948;} .st4{fill:#3F2A3F;} .st5{fill:#FFFFFF;} .st6{fill:#993137;} .st7{fill:#263238;} .st8{fill:#F5F5F5;} .st9{fill:#EBEBEB;} </style> <g> <path class="st0" d="M89.94,68.81c0,0-5.62,0.29-6.53-0.1c-0.94-0.4,1.66-7.04,1.66-7.37c0-1.18-5.35,2.02-6.4,1.71 c-3.05-0.89-6.14-1.65-9.26-2.3c0.37,0.39,0.5,0.94,0.62,1.46c0.8,3.53-0.69,8.73-0.61,12.58c-0.72,0.81-1.51,1.64-2.29,2.36 c-2.72,2.51-2.49,2.99-2.49,2.99s5.43,14.58,13.06,14.5c7.63-0.07,17.76-3.05,17.76-3.05l5.6-8.94L89.94,68.81z"></path> <g> <path class="st1" d="M96.08,69.61c0,0-10.55,8.28-4.65,18.61c3.84,6.73,20.1,14.34,20.1,14.34s1.25-9.89,6.48-15.3 c0,0-10.65-9.77-13.95-12.85C99.9,70.56,96.08,69.61,96.08,69.61z"></path> </g> <path class="st2" d="M67.15,77.16c0,0,4.73,3.04,12.03,2.38c7.31-0.66,8.43-11.25,8.43-11.25l8.46,1.32 c0,0,11.97,20.65,15.64,33.47c3.67,12.82,22.47,25.08,22.47,25.08s-12.94,10.38-16.19,12.46c-3.98,2.53,8.18,4.32,0.08,10.84 c-8.99,7.23-9.52,14.6-9.52,14.6s-33.4-32.58-42.46-56.92c-3.05-8.21-6.08-26.3-6.08-26.3S63.42,79.7,67.15,77.16z"></path> <path class="st0" d="M92.45,55.95c0.76,3.09,1.12,6.76-1.05,9.09c-2,2.14-5.3,2.25-8.23,2.14c-3.44-0.13-7-0.39-10.04-2.01 c-4.61-2.46-7.12-7.51-9.34-12.24c-0.78-1.67-1.59-3.47-1.31-5.3c0.2-1.29,0.92-2.44,1.68-3.49c1.82-2.51,3.99-4.76,6.44-6.66 c4.08-3.18,9.62-4.89,13.2-0.46C88.05,42.3,90.84,49.44,92.45,55.95z"></path> <path class="st3" d="M82.25,38.59c-2.42,1.33-7.65,0.53-10.41,0.51c-2.72-0.02-5.25,2.19-5.7,4.87c-0.45,2.68,1.15,5.54,3.62,6.66 c0.67,0.3,1.42,0.51,1.93,1.05c0.51,0.54,0.59,1.57-0.07,1.91c-0.92-1.28-3.09-1.19-4.09,0.02c-1,1.21-0.83,3.14,0.19,4.34 c1.02,1.2,2.7,1.7,4.27,1.54c-0.59,2.06-1.18,4.13-1.77,6.19c-1.22-0.95-2.6-1.69-3.9-2.54c-6.18-4-10.95-11.15-9.82-18.43 c0.82-5.27,4.74-9.83,9.67-11.86c3.67-1.51,7.8-1.66,11.63-0.73c1.96,0.48,5.49,2.03,6.03,4.03C84.31,37.91,83.9,37.68,82.25,38.59 z"></path> <g> <path class="st3" d="M83.6,47.82c0.77,1.24,1.8,2.23,2.78,3.3c0.63,0.69,1.7,1.45,0.85,2.44c-0.4,0.47-1.35,0.44-1.87,0.8 c-0.17,0.12-0.1,0.35,0.1,0.37c1.15,0.14,3.27-0.75,2.97-2.21c-0.16-0.76-1.02-1.4-1.52-1.93c-0.95-1.02-2.07-1.87-2.86-3.04 C83.86,47.28,83.42,47.53,83.6,47.82L83.6,47.82z"></path> </g> <g> <path class="st3" d="M83.22,57.56c1.59,1.08,5.27,0.53,6.31-1.17c0.11-0.19-0.07-0.39-0.27-0.35c-0.95,0.18-1.78,0.76-2.74,0.97 c-1.08,0.23-2.1-0.02-3.17,0.08C83.1,57.12,83.01,57.42,83.22,57.56L83.22,57.56z"></path> </g> <g> <path class="st3" d="M79.26,48.46c0.05-0.19,0.1-0.38,0.17-0.57c0.1-0.29-0.33-0.46-0.48-0.2c-0.45,0.76,0.73,1.66,1.35,1.03 c0.61-0.63-0.25-1.85-1.04-1.38c-0.75,0.45-0.2,1.95,0.57,1.36c0.37-0.28,0.53-0.82,0.24-1.21c-0.26-0.35-0.83-0.47-1.14-0.11 c-0.31,0.36-0.16,1.01,0.32,1.12c0.6,0.14,0.9-0.51,0.95-1c0.02-0.2-0.18-0.33-0.35-0.35c-0.51-0.05-1.03,0.29-1.09,0.81 c-0.06,0.5,0.34,1.02,0.87,1.01c0.48-0.01,0.87-0.5,0.78-0.98c-0.11-0.59-0.87-0.63-1.34-0.47c-0.11,0.04-0.23,0.13-0.25,0.25 c-0.14,0.86,0.99,1.61,1.67,0.93c0.68-0.69-0.21-1.92-1.09-1.58c-0.15,0.06-0.26,0.18-0.26,0.35c-0.01,0.31-0.02,0.62,0,0.93 c0.03,0.44,0.64,0.43,0.68,0c0.03-0.31,0.03-0.62,0.03-0.93c-0.09,0.12-0.18,0.23-0.26,0.34c0.18-0.07,0.56,0.18,0.39,0.38 c-0.12,0.14-0.49-0.04-0.46-0.22c-0.08,0.08-0.17,0.17-0.25,0.25c0.06-0.02,0.35-0.12,0.41-0.05c0.06,0.08-0.08,0.06-0.11,0.05 c-0.14-0.04-0.12-0.2-0.06-0.29c0.07-0.1,0.23-0.1,0.34-0.09c-0.12-0.12-0.23-0.23-0.35-0.35c-0.01,0.07-0.04,0.14-0.04,0.2 c-0.02,0.03-0.03,0.06-0.05,0.1c0.02,0,0.05,0.01,0.07,0.01c0.05-0.01,0.08,0.01,0.09,0.07c0.05,0.04,0.05,0.09,0.02,0.14 c-0.02,0.12-0.12,0.2-0.22,0.25c0.08-0.01,0.15-0.02,0.23-0.03c-0.33-0.07,0.03-0.77,0.28-0.21c0.21,0.47-0.61,0.36-0.46-0.15 c-0.17-0.02-0.35-0.05-0.52-0.07c0.01,0.2,0.01,0.39-0.01,0.59C78.89,48.62,79.22,48.66,79.26,48.46L79.26,48.46z"></path> </g> <g> <path class="st4" d="M85.91,45.79c0.02,0,0.02-0.03,0-0.03S85.89,45.79,85.91,45.79L85.91,45.79z"></path> </g> <g> <path class="st3" d="M86.07,45.87c0.16-0.34,0.14-0.7-0.04-1.03c-0.11-0.21-0.38-0.21-0.54-0.07c-0.43,0.37-0.43,1-0.04,1.4 c0.11,0.11,0.31,0.14,0.44,0.06c0.44-0.28,0.54-0.93,0.12-1.28c-0.12-0.1-0.3-0.15-0.44-0.06c-0.67,0.42-0.34,1.64,0.51,1.44 c0.9-0.22,0.64-1.81-0.22-1.35c-0.36,0.19-0.45,0.7-0.18,1c0.27,0.3,0.78,0.27,1.06-0.01c0.27-0.27,0.41-0.94,0.05-1.19 c-0.41-0.28-1.06-0.15-1.45,0.08c-0.15,0.09-0.19,0.24-0.16,0.4c0.07,0.44,0.4,0.77,0.84,0.85c0.17,0.03,0.31-0.02,0.41-0.17 c0.23-0.35,0.28-0.73,0.18-1.12c-0.06-0.24-0.43-0.38-0.6-0.16c-0.34,0.43-0.34,0.93,0,1.35c0.08,0.1,0.23,0.11,0.35,0.09 c0.43-0.08,0.75-0.39,0.83-0.82c0.08-0.44-0.57-0.63-0.67-0.19c-0.05,0.2-0.15,0.28-0.35,0.32c0.12,0.03,0.23,0.06,0.35,0.09 c-0.08-0.09-0.08-0.24,0-0.33c-0.2-0.05-0.4-0.11-0.6-0.16c0.06,0.22,0.02,0.38-0.1,0.57c0.14-0.06,0.27-0.11,0.41-0.17 c-0.21-0.03-0.31-0.13-0.34-0.35c-0.05,0.13-0.11,0.27-0.16,0.4c0.27-0.17,0.52-0.18,0.82-0.05c-0.08-0.08-0.16-0.16-0.25-0.25 c0.03,0.1,0.02,0.2-0.04,0.29c-0.16-0.01-0.27,0.04-0.34,0.16c0.09-0.01-0.04-0.06,0.03-0.11c-0.15-0.02-0.29-0.04-0.44-0.06 c0.04,0.04,0.1,0.09,0.02,0.14c0.15,0.02,0.29,0.04,0.44,0.06c-0.12-0.13-0.11-0.28,0.02-0.4c-0.14,0.02-0.28,0.04-0.42,0.05 c0.12,0.11,0.16,0.24,0.11,0.39C85.62,45.93,85.96,46.11,86.07,45.87L86.07,45.87z"></path> </g> <g> <path class="st3" d="M75.4,46.9c0.39-0.22,0.82-0.33,1.19-0.59c0.39-0.27,0.86-0.59,1.16-0.96c0.4-0.48,0.51-1.13,0.1-1.65 c-0.38-0.48-1.08-0.66-1.62-0.32c-0.44,0.27-0.85,0.67-1.19,1.05c-0.35,0.39-0.55,0.84-0.86,1.25c-0.23,0.31-0.12,0.82,0.14,1.08 C74.6,47.05,75.05,47.09,75.4,46.9L75.4,46.9z"></path> </g> <g> <path class="st3" d="M84.16,43.14c-0.21-0.07,0.12,0.05,0.22,0.08c0.09,0.03,0.19,0.04,0.28,0.05c-0.01,0,0.46,0.07,0.24,0.04 c0.27,0.04,0.47,0.04,0.73-0.03c0.8-0.23,1.1-1.27,0.49-1.86c-0.78-0.77-2.33-0.44-2.54,0.71C83.5,42.58,83.71,42.99,84.16,43.14 L84.16,43.14z"></path> </g> <path class="st2" d="M262.57,110.79c-0.28,1.15-0.55,2.31-0.83,3.47c-0.31,1.32-0.59,2.84,0.23,3.91c0.27,0.36,0.71,0.64,1.15,0.53 c0.24-0.06,0.43-0.23,0.61-0.39c1.96-1.81,3.46-4.06,4.93-6.29c0.72-1.09,1.48-2.35,1.19-3.63c-0.32-1.44-2.48-3.23-4.02-2.9 C263.75,105.93,262.97,109.09,262.57,110.79z"></path> <path class="st2" d="M257.07,122.13c-2.59,1.8-5.13,3.71-7.2,6.09c-2.07,2.38-3.65,5.26-4.04,8.39c-0.18,1.46-0.09,2.99,0.55,4.31 c0.84,1.76,2.52,2.95,4.17,4c3.15,2.02,6.59,3.89,10.33,4.1c3.97,0.22,7.81-1.48,11.2-3.56c0.84-0.52,1.69-1.07,2.29-1.86 c0.82-1.07,1.09-2.46,1.2-3.8c0.37-4.52-0.9-9.05-2.92-13.1c-0.94-1.88-2.04-3.68-3.22-5.43c-0.93-1.37-2.23-4.04-3.78-4.77 c-1.83-0.87-2.75,1.08-3.97,2.19C260.26,119.96,258.64,121.03,257.07,122.13z"></path> <path class="st2" d="M301.76,158.92c1.41-0.85,2.79-1.84,3.67-3.23c0.82-1.3,1.12-2.87,1.27-4.4c0.49-5.13-0.61-10.4-3.12-14.91 c-0.91-1.64-2-3.16-3.09-4.69c-1.74-2.45-3.48-4.89-5.22-7.34c-2.15-3.02-4.37-6.22-4.78-9.91c-3.07-0.57-6.63-1.01-8.94,1.08 c-1.96,1.77-2.24,4.69-2.47,7.32c-0.46,5.26-1.22,10.49-2.29,15.66c-0.82,3.99-1.83,7.94-2.56,11.94 c-0.54,2.95-1.46,6.56-0.26,9.48c2.3,5.57,10.7,4.46,15.36,3.63C293.71,162.79,297.95,161.22,301.76,158.92z"></path> <path class="st0" d="M260.82,139.23c0,0,6.11,0.21,7.02-0.18c0.94-0.4,0.58-7.83,0.58-8.16c0-1.18,2.57,1.84,3.61,1.54 c3.05-0.89,3.35-1.57,6.47-2.21c-0.37,0.39-0.5,0.94-0.62,1.46c-0.8,3.53,0.51,7.06,0.43,10.92c0.72,0.81,4.48,3.22,5.26,3.94 c2.72,2.51,1.03,3.7,1.03,3.7s-3.97,13.86-11.6,13.79c-7.63-0.07-17.76-3.05-17.76-3.05l-5.6-8.94L260.82,139.23z"></path> <g> <path class="st0" d="M264.03,139.14c0,0,1.15,8.13-4.74,18.47c-3.84,6.73-20.1,14.34-20.1,14.34s0.06-8.57-5.17-13.98 c0,0,12.09-10.3,15.59-13.14C258.91,137.31,264.03,139.14,264.03,139.14z"></path> </g> <path class="st5" d="M283.57,146.54c0,0-4.73,3.04-12.03,2.38c-7.31-0.66-5.75-9.78-5.75-9.78l-1.84-0.28 c0,0-21.27,20.78-24.94,33.6c-3.67,12.82-22.47,25.08-22.47,25.08s12.94,10.38,16.19,12.46c3.98,2.53-8.18,4.32-0.08,10.84 c8.99,7.23,9.52,14.6,9.52,14.6s26.93-25.49,22.66-47.99c-1.63-8.61,20.37-19.74,21.73-30.65 C286.74,155.24,287.29,149.08,283.57,146.54z"></path> <path class="st0" d="M258.27,125.34c-0.76,3.09-1.12,6.76,1.05,9.09c2,2.14,5.3,2.25,8.23,2.14c3.44-0.13,7-0.39,10.04-2.01 c4.61-2.46,7.12-7.51,9.34-12.24c0.78-1.67,1.59-3.47,1.31-5.3c-0.2-1.29-0.92-2.44-1.68-3.49c-1.82-2.51-3.99-4.76-6.44-6.66 c-4.08-3.18-9.61-4.89-13.2-0.46C262.66,111.68,259.87,118.82,258.27,125.34z"></path> <g> <path class="st3" d="M271.02,121.75c-0.01-0.2-0.02-0.39-0.01-0.59c-0.17,0.02-0.35,0.05-0.52,0.07c0.15,0.51-0.68,0.62-0.46,0.15 c0.25-0.54,0.61,0.14,0.28,0.21c0.08,0.01,0.15,0.02,0.23,0.03c-0.07-0.04-0.16-0.1-0.2-0.18c-0.01-0.05-0.03-0.1-0.04-0.15 c0.01-0.1,0.06-0.15,0.13-0.14c0.14-0.28-0.07,0.25,0.04-0.06c0-0.01-0.07-0.24-0.07-0.25c-0.12,0.12-0.23,0.23-0.35,0.35 c0.12-0.01,0.26-0.01,0.34,0.09c0.08,0.09,0.08,0.26-0.06,0.29c-0.05,0.01-0.13,0.01-0.11-0.05c0.03-0.07,0.37,0.04,0.41,0.05 c-0.08-0.08-0.17-0.17-0.25-0.25c0.03,0.18-0.34,0.36-0.46,0.22c-0.17-0.2,0.2-0.45,0.39-0.38c-0.09-0.11-0.18-0.23-0.26-0.34 c0.01,0.31,0,0.62,0.03,0.93c0.05,0.43,0.65,0.45,0.68,0c0.02-0.31,0-0.62,0-0.93c0-0.17-0.11-0.29-0.26-0.34 c-0.87-0.34-1.76,0.89-1.09,1.58c0.67,0.69,1.8-0.07,1.67-0.93c-0.02-0.13-0.14-0.21-0.25-0.25c-0.46-0.17-1.23-0.13-1.33,0.47 c-0.09,0.47,0.3,0.97,0.78,0.98c0.53,0.01,0.93-0.51,0.87-1.01c-0.07-0.52-0.59-0.86-1.09-0.81c-0.17,0.02-0.37,0.15-0.35,0.35 c0.04,0.44,0.25,0.99,0.77,1.01c0.45,0.02,0.74-0.43,0.64-0.84c-0.24-1.06-1.89-0.26-1.31,0.73c0.58,1,1.62-0.09,1.06-0.87 c-0.57-0.79-1.7,0.11-1.42,0.91c0.37,1.05,2.05,0.15,1.52-0.76c-0.15-0.25-0.59-0.09-0.48,0.2c0.07,0.19,0.12,0.37,0.17,0.57 C270.71,122,271.03,121.96,271.02,121.75L271.02,121.75z"></path> </g> <g> <path class="st4" d="M264.8,115.17c0.02,0,0.02-0.03,0-0.03C264.78,115.14,264.78,115.17,264.8,115.17L264.8,115.17z"></path> </g> <g> <path class="st3" d="M264.13,118.51c-0.05-0.15-0.01-0.27,0.11-0.39c-0.14-0.02-0.28-0.04-0.42-0.05c0.12,0.12,0.14,0.27,0.02,0.4 c0.15-0.02,0.29-0.04,0.44-0.06c-0.08-0.05-0.02-0.1,0.02-0.14c-0.15,0.02-0.29,0.04-0.44,0.06c0.07,0.04-0.06,0.09,0.03,0.11 c-0.07-0.11-0.18-0.17-0.34-0.15c-0.06-0.09-0.07-0.19-0.04-0.29c-0.08,0.08-0.16,0.16-0.25,0.25c0.29-0.12,0.54-0.12,0.82,0.05 c-0.05-0.13-0.11-0.27-0.16-0.4c-0.03,0.21-0.13,0.31-0.34,0.35c0.14,0.06,0.27,0.11,0.41,0.17c-0.12-0.19-0.16-0.35-0.1-0.57 c-0.2,0.05-0.4,0.11-0.6,0.16c0.08,0.09,0.08,0.24,0,0.33c0.12-0.03,0.23-0.06,0.35-0.09c-0.2-0.03-0.3-0.12-0.35-0.32 c-0.11-0.44-0.75-0.25-0.67,0.19c0.08,0.43,0.4,0.75,0.83,0.82c0.12,0.02,0.27,0.01,0.35-0.09c0.35-0.43,0.35-0.92,0-1.35 c-0.17-0.22-0.54-0.08-0.6,0.16c-0.11,0.4-0.05,0.78,0.18,1.12c0.1,0.15,0.24,0.19,0.41,0.17c0.43-0.07,0.77-0.41,0.84-0.85 c0.02-0.16-0.02-0.31-0.16-0.4c-0.39-0.24-1.03-0.37-1.45-0.08c-0.35,0.24-0.23,0.87,0.01,1.14c0.26,0.3,0.76,0.36,1.06,0.08 c0.32-0.29,0.23-0.83-0.15-1.03c-0.85-0.46-1.11,1.08-0.26,1.34c0.86,0.27,1.24-0.99,0.55-1.43c-0.14-0.09-0.32-0.05-0.44,0.06 c-0.42,0.35-0.32,1,0.12,1.28c0.13,0.08,0.33,0.06,0.44-0.06c0.38-0.4,0.39-1.03-0.04-1.4c-0.16-0.14-0.43-0.14-0.54,0.07 c-0.18,0.33-0.2,0.69-0.04,1.03C263.84,118.91,264.18,118.74,264.13,118.51L264.13,118.51z"></path> </g> <g> <path class="st3" d="M273.31,117.61c-0.29-0.01-0.56,0.05-0.86,0c-0.31-0.05-0.69-0.11-0.99-0.25c-0.4-0.18-0.71-0.57-0.69-1.03 c0.02-0.43,0.32-0.77,0.75-0.73c0.34,0.03,0.71,0.16,1.04,0.3c0.33,0.14,0.62,0.36,0.94,0.53c0.24,0.13,0.38,0.49,0.34,0.74 C273.79,117.45,273.57,117.63,273.31,117.61L273.31,117.61z"></path> </g> <g> <path class="st3" d="M266.36,114.13c0.21-0.04-0.12,0.03-0.22,0.05c-0.09,0.02-0.19,0.02-0.28,0.03c0.01,0-0.46,0.05-0.24,0.02 c-0.27,0.03-0.47,0.03-0.73-0.02c-0.8-0.15-1.1-0.81-0.49-1.19c0.78-0.49,2.33-0.28,2.54,0.45 C267.01,113.77,266.81,114.04,266.36,114.13L266.36,114.13z"></path> </g> <g> <path class="st3" d="M266.01,119.07c-1.24,2.88-3.03,5.42-5.28,7.59c-0.18,0.18-0.15,0.52,0.08,0.64 c0.79,0.42,1.44,0.62,2.31,0.31c0.33-0.12,0.25-0.54-0.08-0.58c-0.63-0.05-1.23-0.19-1.82-0.44c0.03,0.21,0.06,0.43,0.08,0.64 c2.32-2.27,4.04-4.93,5.22-7.95C266.66,119,266.14,118.78,266.01,119.07L266.01,119.07z"></path> </g> <path class="st6" d="M264.99,132.52c-0.79,0.08-1.62,0.08-2.36-0.2c-0.74-0.29-1.36-1-1.3-1.79c0.02-0.24,0.12-0.5,0.33-0.62 c0.1-0.06,0.22-0.07,0.34-0.08c0.92-0.08,1.89,0.19,2.76-0.11c0.52-0.18,0.96-0.55,1.45-0.8c0.49-0.25,1.13-0.37,1.57-0.05 c0.44,0.31,0.54,0.95,0.36,1.46c-0.18,0.51-0.58,0.9-1,1.24C266.26,132.29,265.76,132.36,264.99,132.52"></path> <path class="st2" d="M268.56,109.17c-3-1.62-5.31-4.7-5.48-8.11c-0.05-1.02,0.1-2.09,0.71-2.91c0.5-0.69,1.27-1.13,2.03-1.53 c2.31-1.21,5.15-2.14,7.45-0.91c1.39,0.74,2.29,2.13,3.14,3.45c2.08,3.24,4.34,6.57,7.72,8.42c1.6,0.88,3.42,1.4,4.8,2.59 c2.14,1.85,2.75,5.16,1.64,7.76c-1.11,2.6-3.77,4.39-6.58,4.72c-1.27,0.15-2.64-0.01-3.67-0.77c-3.03-2.23-2.05-6.35-3.38-9.33 C275.69,109.77,271.06,110.51,268.56,109.17z"></path> <path class="st2" d="M277.92,124.76c0.82-0.32,1.71-0.59,2.57-0.43c0.87,0.17,1.68,0.93,1.59,1.81c-0.1,1-1.22,1.57-2.22,1.71 c-1,0.14-2.93,0.62-2.93,0.62c-1.81,3.96-5.28,9.51-4.12,13.98c0.63,2.44,2.45,4.54,4.78,5.52c1.76,0.74,3.71,0.84,5.62,0.91 c5.63,0.19,10.56-3.04,10.64-9.14c0.03-2.41-0.63-4.78-1.31-7.09c-0.93-3.15-0.96-8.45-2.87-11.12c-1.54-2.15-5.16-2.38-7.93-2.62 C278.71,118.64,278.26,122.28,277.92,124.76z"></path> <g> <g> <g> <g> <g> <g> <g> <g> <g> <g> <g> <path class="st7" d="M222.78,285.23l-94.93,0c-11.47-0.05-21.16-9.83-21.12-21.3l1.01-239.09 c0.05-11.48,9.39-20.74,20.87-20.69l95.37,0.44c11.47,0.05,20.73,9.39,20.68,20.86l-1.01,239.09 C243.6,276.02,234.26,285.29,222.78,285.23z"></path> </g> </g> </g> </g> </g> </g> </g> </g> </g> </g> </g> <path class="st8" d="M223.85,13.68l-18.49-0.09c-2.48-0.01-4.5,2.08-4.51,4.67l-0.01,3.35c-0.01,2.59-2.03,4.68-4.51,4.67 l-36.04-0.17c-2.48-0.01-4.48-2.12-4.47-4.71l0.01-3.35c0.01-2.59-1.99-4.7-4.47-4.71l-6.5-0.03l-16.18-0.07 c-8.04-0.04-14.58,6.45-14.62,14.49l-0.99,233.37c-0.03,6.03,3.62,11.21,8.83,13.44v-55.77c0-1.91,1.56-3.47,3.47-3.47h25.97 c1.91,0,3.47,1.56,3.47,3.47v57.06l4.59,0.02v-57.08c0-1.91,1.56-3.47,3.47-3.47h25.97c1.91,0,3.47,1.56,3.47,3.47v57.23l4.59,0.02 v-57.25c0-1.91,1.56-3.47,3.47-3.47h25.97c1.91,0,3.47,1.56,3.47,3.47v55.56c4.46-2.47,7.5-7.21,7.52-12.67l0.99-233.37 C238.36,20.25,231.88,13.71,223.85,13.68z"></path> <g> <g> <g> <path class="st9" d="M150.6,159.77H126.1c-2.31,0-4.2-1.89-4.2-4.2V97c0-2.31,1.89-4.2,4.2-4.2h24.51c2.31,0,4.2,1.89,4.2,4.2 v58.57C154.81,157.88,152.92,159.77,150.6,159.77z"></path> </g> <g> <path class="st9" d="M188.11,159.77H163.6c-2.31,0-4.2-1.89-4.2-4.2V97c0-2.31,1.89-4.2,4.2-4.2h24.51c2.31,0,4.2,1.89,4.2,4.2 v58.57C192.32,157.88,190.42,159.77,188.11,159.77z"></path> </g> <g> <path class="st9" d="M225.62,159.77h-24.51c-2.31,0-4.2-1.89-4.2-4.2V97c0-2.31,1.89-4.2,4.2-4.2h24.51c2.31,0,4.2,1.89,4.2,4.2 v58.57C229.82,157.88,227.93,159.77,225.62,159.77z"></path> </g> </g> <g> <g> <path class="st9" d="M141.98,81.93h-9.73c-5.5,0-10-4.5-10-10v-11c0-5.5,4.5-10,10-10h9.73c5.5,0,10,4.5,10,10v11 C151.98,77.43,147.48,81.93,141.98,81.93z"></path> </g> <g> <g> <rect x="157.84" y="58.59" class="st9" width="55.8" height="8.28"></rect> </g> <g> <path class="st9" d="M212.63,72.73h-53.79c-0.23,0-0.41-0.18-0.41-0.41c0-0.23,0.18-0.41,0.41-0.41h53.79 c0.23,0,0.41,0.18,0.41,0.41C213.05,72.54,212.86,72.73,212.63,72.73z"></path> </g> </g> <g> <g> <g> <path class="st9" d="M226.92,72.47h-5.39c-1.02,0-1.85-0.83-1.85-1.85c0-0.89,0.64-1.65,1.5-1.81 c-0.01-0.11-0.02-0.22-0.02-0.32c0-1.67,1.36-3.03,3.03-3.03c1.2,0,2.27,0.69,2.76,1.78c1.43,0.02,2.58,1.19,2.58,2.62 C229.54,71.29,228.36,72.47,226.92,72.47z M224.19,65.83c-1.46,0-2.65,1.19-2.65,2.65c0,0.14,0.01,0.29,0.04,0.45 c0.01,0.05,0,0.11-0.04,0.15c-0.03,0.04-0.08,0.07-0.14,0.07c-0.76,0.06-1.35,0.7-1.35,1.46c0,0.81,0.66,1.47,1.47,1.47h5.39 c1.23,0,2.24-1,2.24-2.24c0-1.23-1-2.24-2.24-2.24l-0.04,0c0,0-0.04,0-0.04,0c-0.08,0-0.15-0.04-0.18-0.12 C226.24,66.49,225.28,65.83,224.19,65.83z"></path> <path class="st9" d="M226.92,72.57h-5.39c-1.08,0-1.95-0.88-1.95-1.95c0-0.9,0.62-1.68,1.49-1.9 c-0.01-0.08-0.01-0.16-0.01-0.24c0-1.73,1.41-3.14,3.14-3.14c1.21,0,2.31,0.7,2.83,1.78c1.45,0.05,2.62,1.26,2.62,2.72 C229.64,71.35,228.42,72.57,226.92,72.57z M224.19,65.56c-1.62,0-2.93,1.31-2.93,2.93c0,0.1,0.01,0.2,0.02,0.31l0.01,0.1 l-0.09,0.02c-0.82,0.16-1.42,0.88-1.42,1.71c0,0.96,0.78,1.75,1.75,1.75h5.39c1.39,0,2.52-1.13,2.52-2.52 c0-1.37-1.11-2.5-2.48-2.52l-0.07,0l-0.03-0.06C226.38,66.23,225.34,65.56,224.19,65.56z M226.92,72.19h-5.39 c-0.87,0-1.57-0.71-1.57-1.57c0-0.81,0.63-1.5,1.44-1.57c0.02,0,0.05-0.01,0.06-0.03c0.01-0.02,0.02-0.04,0.02-0.07 c-0.03-0.17-0.04-0.32-0.04-0.47c0-1.52,1.24-2.76,2.76-2.76c1.13,0,2.13,0.68,2.56,1.73c0.01,0.03,0.05,0.05,0.08,0.05 c0,0,0,0,0,0l0.08,0c1.3,0,2.35,1.05,2.35,2.34C229.26,71.14,228.21,72.19,226.92,72.19z M224.19,65.94 c-1.41,0-2.55,1.14-2.55,2.55c0,0.14,0.01,0.28,0.04,0.43c0.01,0.08-0.01,0.17-0.06,0.23c-0.05,0.06-0.13,0.1-0.21,0.11 c-0.7,0.06-1.26,0.65-1.26,1.36c0,0.75,0.61,1.36,1.37,1.36h5.39c1.18,0,2.14-0.96,2.14-2.14c0-1.18-0.96-2.14-2.14-2.14 l-0.08,0c0,0,0,0,0,0c-0.12,0-0.23-0.07-0.28-0.18C226.16,66.56,225.24,65.94,224.19,65.94z"></path> </g> </g> <g> <g> <g> <path class="st9" d="M224.55,69.79c0.15,0,0.27,0.12,0.27,0.27v4.22l0.89-0.89c0.05-0.05,0.12-0.08,0.19-0.08 c0.07,0,0.14,0.03,0.19,0.08c0.05,0.05,0.08,0.12,0.08,0.19c0,0.07-0.03,0.14-0.08,0.19l-1.35,1.36 c-0.03,0.03-0.06,0.05-0.09,0.06c-0.03,0.01-0.07,0.02-0.1,0.02c-0.04,0-0.07-0.01-0.1-0.02c-0.03-0.01-0.06-0.03-0.09-0.06 L223,73.79c-0.05-0.05-0.08-0.12-0.08-0.19c0-0.07,0.03-0.14,0.08-0.19c0.05-0.05,0.12-0.08,0.19-0.08 c0.07,0,0.14,0.03,0.19,0.08l0.89,0.89v-4.22C224.28,69.91,224.4,69.79,224.55,69.79z"></path> <path class="st9" d="M224.55,75.33c-0.05,0-0.1-0.01-0.14-0.03c-0.05-0.02-0.09-0.05-0.12-0.08l-1.36-1.35 c-0.07-0.07-0.11-0.17-0.11-0.27c0-0.1,0.04-0.2,0.11-0.27c0.14-0.14,0.39-0.14,0.53,0l0.71,0.71v-3.97 c0-0.21,0.17-0.38,0.38-0.38c0.21,0,0.38,0.17,0.38,0.38v3.97l0.71-0.71c0.14-0.14,0.39-0.14,0.53,0 c0.07,0.07,0.11,0.17,0.11,0.27c0,0.1-0.04,0.2-0.11,0.27l-1.35,1.35c-0.04,0.04-0.08,0.06-0.12,0.08 C224.65,75.32,224.6,75.33,224.55,75.33z M223.2,73.43c-0.05,0-0.09,0.02-0.12,0.05c-0.03,0.03-0.05,0.08-0.05,0.12 c0,0.05,0.02,0.09,0.05,0.12l1.36,1.36c0.02,0.02,0.03,0.03,0.06,0.04c0.04,0.02,0.09,0.02,0.13,0 c0.02-0.01,0.04-0.02,0.06-0.04l1.35-1.36c0.03-0.03,0.05-0.07,0.05-0.12c0-0.05-0.02-0.09-0.05-0.12 c-0.07-0.07-0.18-0.06-0.24,0l-1.06,1.06v-4.47c0-0.09-0.08-0.17-0.17-0.17c-0.09,0-0.17,0.08-0.17,0.17v4.47l-1.06-1.06 C223.29,73.44,223.24,73.43,223.2,73.43z"></path> </g> </g> </g> </g> <g> <g> <g> <path class="st9" d="M163.18,80.59c-0.02,0-0.04-0.01-0.06-0.02l-1.24-0.9l-1.24,0.9c-0.03,0.02-0.08,0.02-0.11,0 c-0.03-0.02-0.05-0.07-0.03-0.1l0.47-1.46l-1.24-0.9c-0.03-0.02-0.05-0.07-0.03-0.1c0.01-0.04,0.05-0.06,0.09-0.06h1.53 l0.47-1.46c0.03-0.08,0.15-0.08,0.18,0l0.47,1.46h1.53c0.04,0,0.08,0.03,0.09,0.06c0.01,0.04,0,0.08-0.03,0.1l-1.24,0.9 l0.47,1.46c0.01,0.04,0,0.08-0.03,0.1C163.22,80.58,163.2,80.59,163.18,80.59z"></path> </g> </g> <g> <g> <path class="st9" d="M168.82,80.59c-0.02,0-0.04-0.01-0.06-0.02l-1.24-0.9l-1.24,0.9c-0.03,0.02-0.08,0.02-0.11,0 c-0.03-0.02-0.05-0.07-0.03-0.1l0.47-1.46l-1.24-0.9c-0.03-0.02-0.05-0.07-0.03-0.1c0.01-0.04,0.05-0.06,0.09-0.06h1.53 l0.47-1.46c0.03-0.08,0.15-0.08,0.18,0l0.47,1.46h1.53c0.04,0,0.08,0.03,0.09,0.06c0.01,0.04,0,0.08-0.03,0.1l-1.24,0.9 l0.47,1.46c0.01,0.04,0,0.08-0.03,0.1C168.86,80.58,168.84,80.59,168.82,80.59z"></path> </g> </g> <g> <g> <path class="st9" d="M174.46,80.59c-0.02,0-0.04-0.01-0.06-0.02l-1.24-0.9l-1.24,0.9c-0.03,0.02-0.08,0.02-0.11,0 c-0.03-0.02-0.05-0.07-0.03-0.1l0.47-1.46l-1.24-0.9c-0.03-0.02-0.05-0.07-0.03-0.1c0.01-0.04,0.05-0.06,0.09-0.06h1.53 l0.47-1.46c0.03-0.08,0.15-0.08,0.18,0l0.47,1.46h1.53c0.04,0,0.08,0.03,0.09,0.06c0.01,0.04,0,0.08-0.03,0.1l-1.24,0.9 l0.47,1.46c0.01,0.04,0,0.08-0.03,0.1C174.5,80.58,174.48,80.59,174.46,80.59z"></path> </g> </g> <g> <g> <path class="st9" d="M180.1,80.59c-0.02,0-0.04-0.01-0.06-0.02l-1.24-0.9l-1.24,0.9c-0.03,0.02-0.08,0.02-0.11,0 c-0.03-0.02-0.05-0.07-0.03-0.1l0.47-1.46l-1.24-0.9c-0.03-0.02-0.05-0.07-0.03-0.1c0.01-0.04,0.05-0.06,0.09-0.06h1.53 l0.47-1.46c0.03-0.08,0.15-0.08,0.18,0l0.47,1.46h1.53c0.04,0,0.08,0.03,0.09,0.06c0.01,0.04,0,0.08-0.03,0.1l-1.24,0.9 l0.47,1.46c0.01,0.04,0,0.08-0.03,0.1C180.14,80.58,180.12,80.59,180.1,80.59z M178.8,79.46c0.02,0,0.04,0.01,0.06,0.02 l1.06,0.77L179.51,79c-0.01-0.04,0-0.08,0.03-0.1l1.06-0.77h-1.31c-0.04,0-0.08-0.03-0.09-0.06l-0.41-1.25l-0.41,1.25 c-0.01,0.04-0.05,0.06-0.09,0.06h-1.31l1.06,0.77c0.03,0.02,0.05,0.07,0.03,0.1l-0.41,1.25l1.06-0.77 C178.76,79.46,178.78,79.46,178.8,79.46z"></path> </g> </g> <g> <g> <path class="st9" d="M185.74,80.59c-0.02,0-0.04-0.01-0.06-0.02l-1.24-0.9l-1.24,0.9c-0.03,0.02-0.08,0.02-0.11,0 c-0.03-0.02-0.05-0.07-0.03-0.1l0.47-1.46l-1.24-0.9c-0.03-0.02-0.05-0.07-0.03-0.1c0.01-0.04,0.05-0.06,0.09-0.06h1.53 l0.47-1.46c0.03-0.08,0.15-0.08,0.18,0l0.47,1.46h1.53c0.04,0,0.08,0.03,0.09,0.06c0.01,0.04,0,0.08-0.03,0.1l-1.24,0.9 l0.47,1.46c0.01,0.04,0,0.08-0.03,0.1C185.78,80.58,185.76,80.59,185.74,80.59z M184.44,79.46c0.02,0,0.04,0.01,0.06,0.02 l1.06,0.77L185.16,79c-0.01-0.04,0-0.08,0.03-0.1l1.06-0.77h-1.31c-0.04,0-0.08-0.03-0.09-0.06l-0.41-1.25l-0.41,1.25 c-0.01,0.04-0.05,0.06-0.09,0.06h-1.31l1.06,0.77c0.03,0.02,0.05,0.07,0.03,0.1l-0.41,1.25l1.06-0.77 C184.4,79.46,184.42,79.46,184.44,79.46z"></path> </g> </g> </g> </g> <g> <g> <path class="st9" d="M141.98,202.98h-9.73c-5.5,0-10-4.5-10-10v-11c0-5.5,4.5-10,10-10h9.73c5.5,0,10,4.5,10,10v11 C151.98,198.48,147.48,202.98,141.98,202.98z"></path> </g> <g> <g> <rect x="157.84" y="179.64" class="st9" width="55.8" height="8.28"></rect> </g> <g> <path class="st9" d="M212.63,193.78h-53.79c-0.23,0-0.41-0.18-0.41-0.41c0-0.23,0.18-0.41,0.41-0.41h53.79 c0.23,0,0.41,0.18,0.41,0.41C213.05,193.59,212.86,193.78,212.63,193.78z"></path> </g> </g> <g> <g> <g> <path class="st9" d="M226.92,193.52h-5.39c-1.02,0-1.85-0.83-1.85-1.85c0-0.89,0.64-1.65,1.5-1.81 c-0.01-0.11-0.02-0.22-0.02-0.32c0-1.67,1.36-3.03,3.03-3.03c1.2,0,2.27,0.69,2.76,1.78c1.43,0.02,2.58,1.19,2.58,2.62 C229.54,192.34,228.36,193.52,226.92,193.52z M224.19,186.88c-1.46,0-2.65,1.19-2.65,2.65c0,0.14,0.01,0.29,0.04,0.45 c0.01,0.05,0,0.11-0.04,0.15c-0.03,0.04-0.08,0.07-0.14,0.07c-0.76,0.06-1.35,0.7-1.35,1.46c0,0.81,0.66,1.47,1.47,1.47h5.39 c1.23,0,2.24-1,2.24-2.24c0-1.23-1-2.24-2.24-2.24l-0.04,0c0,0-0.04,0-0.04,0c-0.08,0-0.15-0.04-0.18-0.12 C226.24,187.54,225.28,186.88,224.19,186.88z"></path> <path class="st9" d="M226.92,193.62h-5.39c-1.08,0-1.95-0.88-1.95-1.95c0-0.9,0.62-1.68,1.49-1.9 c-0.01-0.08-0.01-0.16-0.01-0.24c0-1.73,1.41-3.14,3.14-3.14c1.2,0,2.31,0.7,2.83,1.78c1.45,0.05,2.62,1.26,2.62,2.72 C229.64,192.4,228.42,193.62,226.92,193.62z M224.19,186.61c-1.62,0-2.93,1.32-2.93,2.93c0,0.1,0.01,0.2,0.02,0.31l0.01,0.1 l-0.09,0.02c-0.82,0.16-1.42,0.88-1.42,1.71c0,0.96,0.78,1.75,1.75,1.75h5.39c1.39,0,2.52-1.13,2.52-2.52 c0-1.37-1.11-2.5-2.48-2.52l-0.07,0l-0.03-0.06C226.38,187.28,225.34,186.61,224.19,186.61z M226.92,193.24h-5.39 c-0.87,0-1.57-0.71-1.57-1.57c0-0.81,0.63-1.5,1.44-1.57c0.02,0,0.05-0.01,0.06-0.03c0.01-0.02,0.02-0.04,0.02-0.07 c-0.03-0.17-0.04-0.32-0.04-0.47c0-1.52,1.24-2.76,2.76-2.76c1.13,0,2.13,0.68,2.56,1.73c0.01,0.03,0.04,0.05,0.09,0.05 l0.08,0c1.3,0,2.35,1.05,2.35,2.34C229.26,192.19,228.21,193.24,226.92,193.24z M224.19,186.99c-1.41,0-2.55,1.14-2.55,2.55 c0,0.14,0.01,0.28,0.04,0.43c0.01,0.08-0.01,0.17-0.06,0.23c-0.05,0.07-0.13,0.11-0.21,0.11c-0.7,0.06-1.25,0.65-1.25,1.36 c0,0.75,0.61,1.37,1.37,1.37h5.39c1.18,0,2.14-0.96,2.14-2.14c0-1.18-0.96-2.14-2.14-2.14l-0.08,0c0,0,0,0,0,0 c-0.12,0-0.23-0.07-0.28-0.18C226.16,187.61,225.24,186.99,224.19,186.99z"></path> </g> </g> <g> <g> <g> <path class="st9" d="M224.55,190.84c0.15,0,0.27,0.12,0.27,0.27v4.22l0.89-0.89c0.05-0.05,0.12-0.08,0.19-0.08 c0.07,0,0.14,0.03,0.19,0.08c0.05,0.05,0.08,0.12,0.08,0.19c0,0.07-0.03,0.14-0.08,0.19l-1.35,1.36 c-0.03,0.03-0.06,0.05-0.09,0.06c-0.03,0.01-0.07,0.02-0.1,0.02c-0.04,0-0.07-0.01-0.1-0.02c-0.03-0.01-0.06-0.03-0.09-0.06 l-1.36-1.36c-0.05-0.05-0.08-0.12-0.08-0.19c0-0.07,0.03-0.14,0.08-0.19c0.05-0.05,0.12-0.08,0.19-0.08 c0.07,0,0.14,0.03,0.19,0.08l0.89,0.89v-4.22C224.28,190.96,224.4,190.84,224.55,190.84z"></path> <path class="st9" d="M224.55,196.38c-0.05,0-0.1-0.01-0.14-0.03c-0.05-0.02-0.09-0.05-0.12-0.08l-1.35-1.35 c-0.07-0.07-0.11-0.17-0.11-0.27c0-0.1,0.04-0.19,0.11-0.27c0.14-0.14,0.39-0.14,0.53,0l0.71,0.71v-3.97 c0-0.21,0.17-0.38,0.38-0.38c0.21,0,0.38,0.17,0.38,0.38v3.97l0.71-0.71c0.14-0.14,0.39-0.14,0.53,0 c0.07,0.07,0.11,0.17,0.11,0.27c0,0.1-0.04,0.2-0.11,0.27l-1.35,1.35c-0.04,0.04-0.08,0.06-0.12,0.08 C224.65,196.37,224.6,196.38,224.55,196.38z M223.2,194.48c-0.05,0-0.09,0.02-0.12,0.05c-0.03,0.03-0.05,0.08-0.05,0.12 c0,0.05,0.02,0.09,0.05,0.12l1.36,1.36c0.02,0.02,0.03,0.03,0.05,0.04c0.04,0.02,0.09,0.02,0.13,0 c0.02-0.01,0.04-0.02,0.05-0.04l1.35-1.35c0.03-0.03,0.05-0.08,0.05-0.12c0-0.05-0.02-0.09-0.05-0.12 c-0.06-0.07-0.18-0.07-0.24,0l-1.06,1.06v-4.47c0-0.09-0.08-0.17-0.17-0.17c-0.09,0-0.17,0.08-0.17,0.17v4.47l-1.06-1.06 C223.29,194.49,223.24,194.48,223.2,194.48z"></path> </g> </g> </g> </g> <g> <g> <g> <path class="st9" d="M163.18,201.64c-0.02,0-0.04-0.01-0.06-0.02l-1.24-0.9l-1.24,0.9c-0.03,0.02-0.08,0.02-0.11,0 c-0.03-0.02-0.05-0.07-0.03-0.1l0.47-1.46l-1.24-0.9c-0.03-0.02-0.05-0.07-0.03-0.1c0.01-0.04,0.05-0.06,0.09-0.06h1.53 l0.47-1.46c0.03-0.08,0.15-0.08,0.18,0l0.47,1.46h1.53c0.04,0,0.08,0.03,0.09,0.06c0.01,0.04,0,0.08-0.03,0.1l-1.24,0.9 l0.47,1.46c0.01,0.04,0,0.08-0.03,0.1C163.22,201.63,163.2,201.64,163.18,201.64z"></path> </g> </g> <g> <g> <path class="st9" d="M168.82,201.64c-0.02,0-0.04-0.01-0.06-0.02l-1.24-0.9l-1.24,0.9c-0.03,0.02-0.08,0.02-0.11,0 c-0.03-0.02-0.05-0.07-0.03-0.1l0.47-1.46l-1.24-0.9c-0.03-0.02-0.05-0.07-0.03-0.1c0.01-0.04,0.05-0.06,0.09-0.06h1.53 l0.47-1.46c0.03-0.08,0.15-0.08,0.18,0l0.47,1.46h1.53c0.04,0,0.08,0.03,0.09,0.06c0.01,0.04,0,0.08-0.03,0.1l-1.24,0.9 l0.47,1.46c0.01,0.04,0,0.08-0.03,0.1C168.86,201.63,168.84,201.64,168.82,201.64z"></path> </g> </g> <g> <g> <path class="st9" d="M174.46,201.64c-0.02,0-0.04-0.01-0.06-0.02l-1.24-0.9l-1.24,0.9c-0.03,0.02-0.08,0.02-0.11,0 c-0.03-0.02-0.05-0.07-0.03-0.1l0.47-1.46l-1.24-0.9c-0.03-0.02-0.05-0.07-0.03-0.1c0.01-0.04,0.05-0.06,0.09-0.06h1.53 l0.47-1.46c0.03-0.08,0.15-0.08,0.18,0l0.47,1.46h1.53c0.04,0,0.08,0.03,0.09,0.06c0.01,0.04,0,0.08-0.03,0.1l-1.24,0.9 l0.47,1.46c0.01,0.04,0,0.08-0.03,0.1C174.5,201.63,174.48,201.64,174.46,201.64z"></path> </g> </g> <g> <g> <path class="st9" d="M180.1,201.64c-0.02,0-0.04-0.01-0.06-0.02l-1.24-0.9l-1.24,0.9c-0.03,0.02-0.08,0.02-0.11,0 c-0.03-0.02-0.05-0.07-0.03-0.1l0.47-1.46l-1.24-0.9c-0.03-0.02-0.05-0.07-0.03-0.1c0.01-0.04,0.05-0.06,0.09-0.06h1.53 l0.47-1.46c0.03-0.08,0.15-0.08,0.18,0l0.47,1.46h1.53c0.04,0,0.08,0.03,0.09,0.06c0.01,0.04,0,0.08-0.03,0.1l-1.24,0.9 l0.47,1.46c0.01,0.04,0,0.08-0.03,0.1C180.14,201.63,180.12,201.64,180.1,201.64z"></path> </g> </g> <g> <g> <path class="st9" d="M185.74,201.64c-0.02,0-0.04-0.01-0.06-0.02l-1.24-0.9l-1.24,0.9c-0.03,0.02-0.08,0.02-0.11,0 c-0.03-0.02-0.05-0.07-0.03-0.1l0.47-1.46l-1.24-0.9c-0.03-0.02-0.05-0.07-0.03-0.1c0.01-0.04,0.05-0.06,0.09-0.06h1.53 l0.47-1.46c0.03-0.08,0.15-0.08,0.18,0l0.47,1.46h1.53c0.04,0,0.08,0.03,0.09,0.06c0.01,0.04,0,0.08-0.03,0.1l-1.24,0.9 l0.47,1.46c0.01,0.04,0,0.08-0.03,0.1C185.78,201.63,185.76,201.64,185.74,201.64z M184.44,200.51c0.02,0,0.04,0.01,0.06,0.02 l1.06,0.77l-0.41-1.25c-0.01-0.04,0-0.08,0.03-0.1l1.06-0.77h-1.31c-0.04,0-0.08-0.03-0.09-0.06l-0.41-1.25l-0.41,1.25 c-0.01,0.04-0.05,0.06-0.09,0.06h-1.31l1.06,0.77c0.03,0.02,0.05,0.07,0.03,0.1l-0.41,1.25l1.06-0.77 C184.4,200.51,184.42,200.51,184.44,200.51z"></path> </g> </g> </g> </g> </g> <path class="st9" d="M151.33,215.3h-25.97c-1.91,0-3.47,1.56-3.47,3.47v55.77c1.74,0.74,3.65,1.16,5.65,1.17l27.26,0.13v-57.06 C154.81,216.86,153.24,215.3,151.33,215.3z"></path> <path class="st9" d="M188.84,215.3h-25.97c-1.91,0-3.47,1.56-3.47,3.47v57.08l32.91,0.15v-57.23 C192.32,216.86,190.75,215.3,188.84,215.3z"></path> <path class="st9" d="M226.35,215.3h-25.97c-1.91,0-3.47,1.56-3.47,3.47v57.25l25.82,0.12c2.57,0.01,4.99-0.65,7.1-1.82v-55.56 C229.82,216.86,228.26,215.3,226.35,215.3z"></path> <g> <g> <g> <polygon class="st9" points="126.17,20.22 126.26,26.08 129.87,26.01 130.05,20.21 "></polygon> <polygon class="st9" points="131.36,20.42 131.44,25.95 135.06,26.17 135.23,20.38 "></polygon> <polygon class="st9" points="139.74,20.22 139.82,25.8 143.43,25.72 143.48,20.17 "></polygon> <polygon class="st9" points="144.93,20.38 145,25.97 148.62,25.89 148.79,20.35 "></polygon> </g> <g> <circle class="st9" cx="137.31" cy="24.59" r="0.43"></circle> <circle class="st9" cx="137.37" cy="22.9" r="0.43"></circle> </g> </g> <g> <rect x="229.24" y="19.22" transform="matrix(-0.9999 -0.0154 0.0154 -0.9999 459.4108 49.0709)" class="st9" width="1.31" height="7.08"></rect> <rect x="227.15" y="20.92" transform="matrix(-0.9999 -0.0155 0.0155 -0.9999 455.228 50.7234)" class="st9" width="1.31" height="5.35"></rect> <rect x="225.07" y="21.99" transform="matrix(-0.9999 -0.0154 0.0154 -0.9999 451.0662 51.6904)" class="st9" width="1.31" height="4.25"></rect> <rect x="222.99" y="23.81" transform="matrix(-0.9999 -0.0154 0.0154 -0.9999 446.8804 53.4683)" class="st9" width="1.31" height="2.39"></rect> </g> <g> <g> <g> <path class="st9" d="M211.56,22.09c-1.02,0-1.92,0.52-2.46,1.3l0.93,0.95c0.28-0.56,0.85-0.96,1.52-0.97 c0.67,0.02,1.23,0.42,1.5,1l0.95-0.93C213.47,22.65,212.58,22.12,211.56,22.09z"></path> <path class="st9" d="M211.58,20.12c-1.56,0-2.96,0.72-3.88,1.85l0.81,0.83c0.7-0.93,1.81-1.53,3.06-1.53 c1.25,0.03,2.34,0.65,3.03,1.59l0.83-0.81C214.52,20.9,213.14,20.15,211.58,20.12z"></path> <path class="st9" d="M211.6,18.02c-2.14-0.01-4.07,0.94-5.38,2.45l0.93,0.95c1.06-1.27,2.65-2.08,4.43-2.07 c1.78,0.03,3.35,0.87,4.39,2.16l0.95-0.93C215.65,19.04,213.74,18.05,211.6,18.02z"></path> </g> <circle class="st9" cx="211.53" cy="25.04" r="0.96"></circle> </g> </g> </g> <g> <path class="st0" d="M226.85,163.96c4.42,1.11,5.33,1.09,14.55,2.54c13.19,2.07,19.59,2.59,19.59,2.59l16.79-15.62 c6.94-5.08,7.95,5.75,4.06,9.98c-4.91,5.34-19.34,18.43-22.91,17.78c-3.57-0.64-34.11-12.37-34.11-12.37L226.85,163.96z"></path> <path class="st0" d="M229.09,165.92c0,0-0.47-8.28-2.16-8.77c-1.69-0.49-0.46,5.61-0.46,5.61s-5.76-3.36-6.79-3.05 c-1.03,0.3,5.19,4.79,5.19,4.79s-6.71-2.8-7.35-1.63c-0.64,1.17,6.27,3.21,6.27,3.21s-6.84-1.78-7.22-0.69 c-0.38,1.09,6.38,2.61,6.38,2.61s-6.35-1.08-5.97,0.21c0.38,1.29,10.18,1.22,10.18,1.22L229.09,165.92z"></path> </g> <path class="st2" d="M60.02,82.84c0,0-11.14,8.63-5.24,18.97c3.84,6.73,20.1,14.34,20.1,14.34s1.25-9.89,6.48-15.3 c0,0-10.19-6.96-12.74-10.69C66.07,86.43,60.02,82.84,60.02,82.84z"></path> <g> <path class="st0" d="M140.89,97.11c-5.2,1.3-15.67,3.78-26.5,5.47c-15.5,2.43-23.89,3.77-23.89,3.77l-12.82-7.57 c-4.12,2.76-10.64,12.45-10.64,12.45s21.69,10.14,25.89,9.39c4.19-0.75,51.11-18.09,51.11-18.09L140.89,97.11z"></path> <path class="st0" d="M137.89,99.03c0,0,0.55-9.73,2.53-10.3c1.98-0.57,0.54,6.59,0.54,6.59s6.76-3.95,7.98-3.59 c1.21,0.36-6.1,5.62-6.1,5.62s7.89-3.29,8.64-1.91c0.75,1.37-7.37,3.77-7.37,3.77s8.03-2.09,8.48-0.81 c0.45,1.28-7.5,3.07-7.5,3.07s7.46-1.27,7.01,0.25c-0.45,1.52-11.96,1.43-11.96,1.43L137.89,99.03z"></path> </g> </g> </svg> 